<svg xmlns="http://www.w3.org/2000/svg" viewBox="0 0 34.88 34.01"><g id="Layer_2" data-name="Layer 2"><g id="Layer_1-2" data-name="Layer 1"><path d="M17.23,0a18.07,18.07,0,0,1,8.86,2.25,16.85,16.85,0,0,1,6.43,6.19,16.65,16.65,0,0,1,2.36,8.72A17.59,17.59,0,0,1,31.61,27.6,16.72,16.72,0,0,1,23.06,34a.93.93,0,0,1-.88-.14.9.9,0,0,1-.31-.7V27.21A3.94,3.94,0,0,0,20.67,24c1-.14,1.83-.26,2.39-.36A10.67,10.67,0,0,0,25.17,23a4.77,4.77,0,0,0,1.94-1.26,6.9,6.9,0,0,0,1.16-2.18,10.53,10.53,0,0,0,.49-3.38A4.89,4.89,0,0,0,28.34,14a8.92,8.92,0,0,0-1.41-1.9,6.51,6.51,0,0,0-.14-4.78,3,3,0,0,0-1.9.25,11.84,11.84,0,0,0-2.11,1l-.84.63a16,16,0,0,0-4.47-.63,15.23,15.23,0,0,0-4.39.63,9.68,9.68,0,0,0-1-.67,14.6,14.6,0,0,0-1.93-.91,3.07,3.07,0,0,0-1.93-.32A6.25,6.25,0,0,0,8,12.09,5.85,5.85,0,0,0,6.4,16.17a10.26,10.26,0,0,0,.49,3.38A7.11,7.11,0,0,0,8,21.73,4.5,4.5,0,0,0,9.84,23a11.68,11.68,0,0,0,2.08.67c.58.12,1.37.22,2.35.32a3.82,3.82,0,0,0-1.12,2.39,8.17,8.17,0,0,1-1.44.42,3.63,3.63,0,0,1-1.87-.28A3.51,3.51,0,0,1,8,24.89a3.72,3.72,0,0,0-1.09-1.23,3.11,3.11,0,0,0-1.16-.53l-.43-.07c-1,0-1.08.35-.14,1.06a3.42,3.42,0,0,1,1,.91,5.54,5.54,0,0,1,.7,1.13l.28.56a3,3,0,0,0,1,1.4,3.29,3.29,0,0,0,1.54.71,10.33,10.33,0,0,0,1.62.14,8.83,8.83,0,0,0,1.27-.07l.49-.07c0,.56,0,1.4,0,2.53s0,1.71,0,1.76a.91.91,0,0,1-.32.7A.92.92,0,0,1,12,34,16.92,16.92,0,0,1,3.3,27.6,17.48,17.48,0,0,1,0,17.16,16.53,16.53,0,0,1,5,4.92,16.72,16.72,0,0,1,17.23,0ZM6.05,23.7a.32.32,0,0,1,.35-.08c.14.1.18.19.14.29s-.14.16-.28.07S6,23.79,6.05,23.7Zm.77.56c.09-.1.21-.07.35.07s.17.26.07.35-.21.07-.35-.07S6.73,24.35,6.82,24.26Zm.7.91c.14-.14.28-.09.43.14s.14.33,0,.42-.28,0-.39-.17S7.43,25.22,7.52,25.17Zm.85,1c.09-.14.23-.12.42.07s.23.35.14.49-.31.12-.49-.07S8.23,26.3,8.37,26.16Zm1.09.91c.07-.19.22-.23.45-.14s.33.16.29.35-.19.24-.43.14S9.39,27.26,9.46,27.07Zm2.21.28c0,.19-.12.28-.35.28s-.42,0-.42-.28.11-.21.35-.21S11.67,27.17,11.67,27.35Zm.92-.42c.23,0,.36.07.38.21s-.08.26-.31.35-.37,0-.39-.21S12.35,27,12.59,26.93Z"/></g></g></svg>