<?xml version="1.0" encoding="utf-8"?>
<!-- Generator: Adobe Illustrator 19.2.1, SVG Export Plug-In . SVG Version: 6.00 Build 0)  -->
<svg version="1.1" id="Layer_1" xmlns="http://www.w3.org/2000/svg" xmlns:xlink="http://www.w3.org/1999/xlink" x="0px" y="0px"
	 viewBox="0 0 288 287.6" style="enable-background:new 0 0 288 287.6;" xml:space="preserve">
<style type="text/css">
	.st0{fill:#002147;}
	.st1{fill:#FFFFFF;}
</style>
<rect x="0" y="0" class="st0" width="288" height="287.6"/>
<g>
	<g>
		<path class="st1" d="M64.4,237.7c0,10.9-8.4,18.8-18.9,18.8c-10.7,0-18.9-8-18.9-18.4c0-10.9,8.4-18.8,18.9-18.8
			C56.2,219.3,64.4,227.3,64.4,237.7L64.4,237.7L64.4,237.7z M58.4,237.9c0-9.9-4.8-16.8-12.9-16.8c-8.8,0-12.9,8.3-12.9,16.8
			c0,9.9,4.8,16.8,12.9,16.8C54.3,254.6,58.4,246.4,58.4,237.9L58.4,237.9L58.4,237.9z"/>
		<path class="st1" d="M179.7,237.7c0,10.9-8.4,18.8-18.9,18.8c-10.7,0-18.9-8-18.9-18.4c0-10.9,8.4-18.8,18.9-18.8
			C171.5,219.3,179.7,227.3,179.7,237.7L179.7,237.7L179.7,237.7z M173.7,237.9c0-9.9-4.8-16.8-12.9-16.8c-8.8,0-12.9,8.3-12.9,16.8
			c0,9.9,4.8,16.8,12.9,16.8C169.6,254.6,173.7,246.4,173.7,237.9L173.7,237.9L173.7,237.9z"/>
		<path class="st1" d="M194.3,238.1h4.5c6.8,0,8.3-4.3,8.3-8.4c0-3.1-1.4-6-4.6-7.4c-1.7-0.7-3.3-0.7-5.5-0.7h-2.7L194.3,238.1
			L194.3,238.1z M202.6,243.8c-2.1-3-2.9-4.1-5.5-4.1h-2.8v12.2c0,1,0.4,1.5,1.5,1.7l4.1,0.9v1.3h-16.1v-1.3l3.7-0.9
			c1.1-0.3,1.5-0.7,1.5-1.7v-28.2c0-1-0.4-1.4-1.5-1.7l-3.7-0.9v-1.3h15.7c3.3,0,5.6,0.3,7.5,1c3.9,1.5,6.1,5.2,6.1,8.7
			c0,4.4-3.3,8.1-8.8,9.4v0.2c1.1,0.5,1.7,1.2,5.6,6.3l4.9,6.5c0.7,1,1.6,1.6,2.7,1.8l3.6,0.8v1.3h-8.6c-1,0-1.5-0.3-2.4-1.5
			L202.6,243.8L202.6,243.8z"/>
		<path class="st1" d="M132.1,232.2h1.5v12h-1.5l-0.9-3.6c-0.3-1.3-1.1-1.8-2.3-1.8h-8.7v13.2c0,1,0.4,1.5,1.5,1.7l4.1,0.9v1.3
			h-16.1v-1.3l3.7-0.9c1.1-0.3,1.5-0.7,1.5-1.7v-28.2c0-1-0.4-1.4-1.5-1.7l-3.7-0.9v-1.3h27.2v9h-1.5l-1.7-5.4
			c-0.4-1.4-1-1.9-2.2-1.9h-11.3v15.5h8.7c1.2,0,1.9-0.5,2.3-1.8L132.1,232.2L132.1,232.2z"/>
		<path class="st1" d="M224,255.8v-1.3l3.7-0.9c1.1-0.3,1.5-0.7,1.5-1.7v-28.2c0-1-0.4-1.4-1.5-1.7l-3.7-0.9v-1.3h16.9
			c4.6,0,7.9,0.6,10.6,1.8c6.8,3.1,9.9,9.8,9.9,16.4c0,6.4-2.4,12.4-8.5,15.6c-2.8,1.5-6.7,2.2-11.8,2.2L224,255.8L224,255.8z
			 M234.5,221.6v31c0,1.3,0.3,1.6,1.6,1.6h4.4c4.2,0,7.3-0.6,9.5-2.2c3.7-2.7,5.4-7.6,5.4-13.8c0-6.1-1.7-12.1-6.7-15
			c-2.1-1.2-4.8-1.6-9-1.6H234.5L234.5,221.6z"/>
		<path class="st1" d="M78.5,254.5v1.3H65.8v-1.3l3.2-0.8c1.2-0.3,2-0.7,2.8-1.6l11-13.8l-11-14.6c-0.7-1-1.6-1.5-2.7-1.8l-3-0.8
			v-1.3h15.8v1.3l-3.4,0.7c-1.2,0.2-0.9,0.7-0.3,1.5l8.1,11.6h0.2l8.3-11.6c0.6-0.8,0.8-1.1-0.3-1.4l-3.2-0.8v-1.3h12.7v1.3
			l-3.2,0.8c-1.2,0.3-2,0.7-2.8,1.6l-10.4,13.1l11.6,15.3c0.7,1,1.6,1.5,2.7,1.8l3,0.8v1.3H89v-1.3l3.4-0.7c1.2-0.2,1-0.6,0.4-1.4
			L84,240h-0.2L75,252.4c-0.6,0.8-0.8,1.1,0.3,1.4L78.5,254.5L78.5,254.5z"/>
	</g>
	<path class="st1" d="M40.6,202.9c-1,1-2.5,1.7-4.6,1.7c-1.8,0-3.5-0.6-4.6-1.7c-1.6-1.6-1.5-3.5-1.5-5.6v-10h2V198
		c0,1.4,0,2.7,1,3.7c0.7,0.7,1.8,1.1,3.1,1.1c1.3,0,2.3-0.4,2.9-1.1c1.2-1.2,1.1-2.4,1.1-5.5v-9h2v8.5
		C42.1,198.9,42.3,201.3,40.6,202.9z"/>
	<path class="st1" d="M58.7,204.3l-8.2-14l0.1,14h-1.9v-17h2.1l8.2,14.1L59,187.2h1.9v17H58.7z"/>
	<path class="st1" d="M67.9,204.3v-17H70v17H67.9z"/>
	<path class="st1" d="M82.7,204.3h-2.3l-5.9-17h2.1l5,15l5.1-15h2L82.7,204.3z"/>
	<path class="st1" d="M93.4,204.3v-17h9.3v1.7h-7.3v5.6h6.8v1.7h-6.8v6.3h7.5v1.8L93.4,204.3L93.4,204.3z"/>
	<path class="st1" d="M115.8,189.8c-1-1-2.2-0.9-3.6-0.9h-1.9v6.4h0.7c1.7,0,3.6,0.1,4.7-1.1c0.6-0.6,0.9-1.4,0.9-2.2
		C116.6,191,116.2,190.2,115.8,189.8z M117.7,204.3l-2-4.4c-1.2-2.7-1.8-3-4.2-3h-1.2v7.4h-2v-17h3.7c2.3,0,4,0,5.3,1.3
		c0.9,0.9,1.3,2,1.3,3.4c0,1.2-0.3,2.2-1.1,2.9c-0.6,0.7-1.6,1.2-2.7,1.3c0.6,0,1.1,0.4,1.4,0.7c0.5,0.5,0.8,1.2,1.3,2.3l2.3,5.1
		H117.7z"/>
	<path class="st1" d="M139.7,204.3v-17h2.1v17H139.7z"/>
	<path class="st1" d="M153.4,188.9v15.3h-2.1v-15.3h-5.1v-1.7h12.2v1.7H153.4z"/>
	<path class="st1" d="M168.3,197.5v6.7h-2v-6.7l-5.4-10.3h2.3l4.2,8l4.1-8l2.2,0L168.3,197.5z"/>
	<path class="st1" d="M192.8,188.6c-3.3,0-5.5,2.8-5.5,7.1c0,4.2,2.4,7.1,5.6,7.1c3.6,0,5.5-3,5.5-7.3
		C198.5,191.4,196.1,188.6,192.8,188.6z M192.8,204.6c-4.4,0-7.6-3.6-7.6-8.8c0-5.3,3.2-8.9,7.8-8.9c4.5,0,7.6,3.6,7.6,8.8
		C200.6,200.9,197.5,204.6,192.8,204.6z"/>
	<path class="st1" d="M208.3,188.9v5.6h6.6v1.7h-6.6v8.1h-2v-17h9.1v1.7H208.3z"/>
	<path class="st1" d="M123.9,191.4c0-2.6,2.1-4.5,5.2-4.5c3.1,0,4.6,1.6,4.8,1.8l-1,1.2c-0.4-0.3-1.7-1.3-3.6-1.3
		c-2.2,0-3.4,1.1-3.4,2.7c0,0.7,0.3,1.3,0.8,1.7c0.6,0.5,1.4,0.9,2.4,1.3c1.1,0.5,2.7,1.1,3.8,2.2c0.7,0.8,1.3,1.7,1.3,3.1
		c0,2.8-2,5-5.5,5c-3,0-4.9-1.7-5.1-1.8l0.9-1.4c0.5,0.4,2.4,1.5,4.1,1.5c2.6,0,3.5-1.4,3.5-3.1c0-0.8-0.4-1.4-0.9-1.9
		c-0.8-0.8-2-1.3-3.2-1.8c-1.1-0.5-2.2-1.1-3-1.9C124.4,193.6,123.9,192.7,123.9,191.4z"/>
</g>
<path class="st1" d="M224.6,68.1c0,0,0,23.9,0,25.5c-1.5,0-18.4,0-18.4,0l-0.2,0.5c-0.3,0.8-0.9,1.5-2.9,1.5c-2,0-2.6-0.7-2.9-1.5
	l-0.2-0.5c0,0-16.9,0-18.4,0c0-1.6,0-25.5,0-25.5h-1.7v0.8l-1.6-0.5c-0.2-0.6-0.8-1.1-1.4-1.1c-0.8,0-1.5,0.7-1.5,1.5
	c0,0.8,0.7,1.5,1.5,1.5c0.4,0,0.7-0.1,1-0.4l2.1,0.6v2l-1.6-0.3c-0.2-0.5-0.8-0.9-1.4-0.9c-0.8,0-1.5,0.7-1.5,1.5
	c0,0.8,0.7,1.5,1.5,1.5c0.4,0,0.8-0.2,1.1-0.5l1.9,0.3v2.1l-1.6-0.1c-0.3-0.4-0.7-0.7-1.3-0.7c-0.8,0-1.5,0.7-1.5,1.5
	c0,0.8,0.7,1.5,1.5,1.5c0.5,0,0.9-0.3,1.2-0.6l1.7,0.1v2.3l-1.7,0.1c-0.3-0.4-0.7-0.6-1.2-0.6c-0.8,0-1.5,0.7-1.5,1.5
	c0,0.8,0.7,1.5,1.5,1.5c0.5,0,1-0.3,1.3-0.7l1.6-0.1v2.1l-1.8,0.3c-0.3-0.3-0.7-0.5-1.1-0.5c-0.8,0-1.5,0.7-1.5,1.5s0.7,1.5,1.5,1.5
	c0.6,0,1.2-0.4,1.4-0.9l1.5-0.3v2.1l-2,0.6c-0.3-0.2-0.6-0.4-1-0.4c-0.8,0-1.5,0.7-1.5,1.5c0,0.8,0.7,1.5,1.5,1.5
	c0.7,0,1.3-0.5,1.4-1.1l1.5-0.5v2l-2.2,1c-0.2-0.2-0.5-0.3-0.8-0.3c-0.8,0-1.5,0.7-1.5,1.5c0,0.8,0.7,1.5,1.5,1.5
	c0.7,0,1.4-0.5,1.5-1.3l1.6-0.7v1.8c0,0,18.2,0,19.1,0c0.8,1.4,2.1,2.1,4.1,2.1s3.4-0.7,4.1-2.1c0.9,0,19.1,0,19.1,0V68.1H224.6z"/>
<g>
	<ellipse class="st1" cx="190.5" cy="61" rx="7" ry="1.3"/>
	<path class="st1" d="M200.1,51.3l-4,2.8l0,0.3l1,0.4c0.2,0.1,0.2,0.2,0.1,0.3l-2.5,2.1l-0.2,0l-1.8-2.6c-0.1-0.2-0.1-0.3,0.1-0.4
		l1.2-0.2v-0.3l-3.1-4.4h-0.5l-3.1,4.4v0.3l1.2,0.2c0.2,0,0.3,0.2,0.1,0.4l-1.8,2.6l-0.2,0l-2.4-2.1c-0.1-0.1-0.1-0.2,0.1-0.3l1-0.4
		l0-0.3l-4.2-2.8l-0.3,0.1l2.5,7.5c1.3-0.6,4.1-1,7.5-1c3.4,0,6.2,0.4,7.5,1l2.5-7.5L200.1,51.3z"/>
</g>
<g>
	<ellipse class="st1" cx="203" cy="111.4" rx="7" ry="1.3"/>
	<path class="st1" d="M212.6,101.8l-4,2.8l0,0.3l1,0.4c0.2,0.1,0.2,0.2,0.1,0.3l-2.5,2.1l-0.2,0l-1.8-2.6c-0.1-0.2-0.1-0.3,0.1-0.4
		l1.2-0.2v-0.3l-3.1-4.4h-0.5l-3.1,4.4v0.3l1.2,0.2c0.2,0,0.3,0.2,0.1,0.4l-1.8,2.6l-0.2,0l-2.4-2.1c-0.1-0.1-0.1-0.2,0.1-0.3l1-0.4
		l0-0.3l-4.2-2.8l-0.3,0.1l2.5,7.5c1.3-0.6,4.1-1,7.5-1c3.4,0,6.2,0.4,7.5,1l2.5-7.5L212.6,101.8z"/>
</g>
<g>
	<ellipse class="st1" cx="215.5" cy="61" rx="7" ry="1.3"/>
	<path class="st1" d="M225.1,51.3l-4,2.8l0,0.3l1,0.4c0.2,0.1,0.2,0.2,0.1,0.3l-2.5,2.1l-0.2,0l-1.8-2.6c-0.1-0.2-0.1-0.3,0.1-0.4
		l1.2-0.2v-0.3l-3.1-4.4h-0.5l-3.1,4.4v0.3l1.2,0.2c0.2,0,0.3,0.2,0.1,0.4l-1.8,2.6l-0.2,0l-2.4-2.2c-0.1-0.1-0.1-0.2,0.1-0.3l1-0.4
		l0-0.3l-4.2-2.8l-0.3,0.1l2.5,7.5c1.3-0.6,4.1-1,7.5-1c3.4,0,6.2,0.4,7.5,1l2.5-7.5L225.1,51.3z"/>
</g>
<g>
	<path class="st1" d="M202.2,71.9c0-2.1-0.7-3.9-2.3-4.8c-1-0.6-2.3-0.8-4-0.8l-11.9,0v24.1h13c3,0,4.8,0.7,4.9,3.4h0.3L202.2,71.9z
		 M193.4,73.4c0.3,0,0.4-0.1,0.4-0.3c0-0.2,0.1-0.4,0.1-0.9l0.1-1.1c0-0.7,0-0.7-0.4-0.8v-0.2h1.2l0.9,2.1l0.8-2.1h1.3v0.2
		c-0.4,0-0.4,0.1-0.4,0.6l0.1,1.8c0,0.6,0,0.6,0.4,0.6v0.2h-1.7v-0.2c0.4,0,0.4-0.1,0.4-0.6l0-1.9h0l-1,2.7h-0.3l-1-2.5h0l0,1.2
		c0,0.5,0,0.7,0,0.9c0,0.2,0.1,0.2,0.5,0.3v0.2h-1.3L193.4,73.4L193.4,73.4z M196.5,78.7L196.5,78.7c-0.5-0.2-1-0.5-1-1.1
		c0-0.6,0.4-1.1,1.3-1.1c0.2,0,0.3,0,0.5,0.1c0.1,0,0.2,0.1,0.3,0.1c0,0.2,0.1,0.5,0.1,0.8l-0.2,0c-0.1-0.3-0.3-0.7-0.7-0.7
		c-0.3,0-0.5,0.2-0.5,0.5c0,0.3,0.2,0.4,0.5,0.6l0.1,0.1c0.5,0.2,0.9,0.5,0.9,1.1c0,0.7-0.5,1.1-1.3,1.1c-0.2,0-0.4,0-0.6-0.1
		c-0.2-0.1-0.3-0.1-0.3-0.1c0-0.2-0.1-0.5-0.2-0.9l0.2-0.1c0.1,0.3,0.4,0.9,0.9,0.9c0.3,0,0.5-0.2,0.5-0.5
		C197,79,196.8,78.8,196.5,78.7z M193,77c0.1,0.3,0.5,1.3,0.7,1.9c0.2-0.5,0.5-1.5,0.6-1.7c0.1-0.3,0.1-0.4-0.2-0.4l-0.2,0v-0.2h1.3
		v0.2c-0.3,0-0.4,0.1-0.6,0.5c0,0.1-0.7,1.7-1.1,2.7h-0.4c-0.4-1-0.9-2.3-1.1-2.8c-0.2-0.5-0.3-0.5-0.5-0.5v-0.2h1.7v0.2l-0.2,0
		C192.9,76.8,192.9,76.9,193,77z M191.4,70.1c1,0,1.7,0.7,1.7,1.8c0,1.1-0.8,1.8-1.8,1.8c-1.1,0-1.8-0.8-1.8-1.8
		C189.6,71.1,190.2,70.1,191.4,70.1z M185.5,73.6v-0.2c0.4,0,0.4-0.1,0.4-0.6V71c0-0.6,0-0.6-0.4-0.6v-0.2h1.6
		c0.7,0,1.2,0.1,1.6,0.5c0.3,0.2,0.5,0.6,0.5,1.1c0,1.3-1,1.9-2.2,1.9H185.5z M189.1,83.1c-0.4,0-0.4,0.1-0.4,0.6v1.8
		c0,0.6,0,0.6,0.4,0.6v0.2h-1.7v-0.2c0.4,0,0.4-0.1,0.4-0.6v-1.8c0-0.6,0-0.6-0.4-0.6v-0.2h1.7V83.1z M189.1,80h-1.3v-0.2
		c0.2,0,0.4-0.1,0.4-0.3c0-0.2,0-0.5,0-1v-1c0-0.4,0-0.5-0.1-0.6c-0.1-0.1-0.2-0.1-0.4-0.2v-0.2h1.2l1.8,2.2h0v-0.7c0-0.6,0-0.8,0-1
		c0-0.2-0.2-0.3-0.5-0.3v-0.2h1.4v0.2c-0.3,0-0.4,0.1-0.4,0.3c0,0.2,0,0.5,0,1v2h-0.5l-2-2.5h0v1c0,0.6,0,0.8,0,1
		c0,0.2,0.2,0.3,0.5,0.3L189.1,80L189.1,80z M192,86.4h-2.6v-0.2c0.4,0,0.4-0.1,0.4-0.6v-1.8c0-0.6,0-0.6-0.4-0.6v-0.2h1.7v0.2
		c-0.4,0-0.4,0.1-0.4,0.6v1.8c0,0.3,0,0.4,0.1,0.5c0.1,0,0.2,0,0.4,0c0.2,0,0.4,0,0.5-0.2c0.1-0.1,0.2-0.2,0.3-0.5l0.2,0
		C192.2,85.7,192.1,86.2,192,86.4z M195,86.4h-2.6v-0.2c0.4,0,0.4-0.1,0.4-0.6v-1.8c0-0.6,0-0.6-0.4-0.6v-0.2h1.7v0.2
		c-0.4,0-0.4,0.1-0.4,0.6v1.8c0,0.3,0,0.4,0.1,0.5c0.1,0,0.2,0,0.4,0c0.2,0,0.4,0,0.5-0.2c0.1-0.1,0.2-0.2,0.3-0.5l0.2,0
		C195.2,85.7,195,86.2,195,86.4z M198.3,83.1c-0.3,0-0.4,0.1-0.6,0.5c0,0.1-0.7,1.7-1.1,2.7h-0.4c-0.4-1-0.9-2.3-1.1-2.8
		c-0.2-0.5-0.3-0.5-0.5-0.5v-0.2h1.7v0.2l-0.2,0c-0.2,0-0.2,0.1-0.1,0.3c0.1,0.3,0.5,1.3,0.7,1.9c0.2-0.5,0.5-1.5,0.6-1.7
		c0.1-0.3,0.1-0.4-0.2-0.4l-0.2,0v-0.2h1.3L198.3,83.1L198.3,83.1z M200,70.4c-0.4,0-0.4,0.1-0.4,0.6v1.8c0,0.6,0,0.6,0.4,0.6v0.2
		h-1.7v-0.2c0.4,0,0.4-0.1,0.4-0.6V71c0-0.6,0-0.6-0.4-0.6v-0.2h1.7V70.4z"/>
	<path class="st1" d="M187.1,70.5c-0.1,0-0.2,0-0.2,0c0,0,0,0.1,0,0.3v2c0,0.5,0.1,0.6,0.4,0.6c0.5,0,0.9-0.5,0.9-1.4
		C188.1,70.8,187.6,70.5,187.1,70.5z"/>
	<path class="st1" d="M191.5,73.4c0.5,0,0.7-0.4,0.7-1.4c0-1.1-0.4-1.7-0.8-1.7c-0.4,0-0.7,0.5-0.7,1.4
		C190.6,72.7,190.9,73.4,191.5,73.4z"/>
</g>
<g>
	<polygon class="st1" points="216.8,84 216.5,85 217.2,85 216.8,84 	"/>
	<polygon class="st1" points="218.1,71.3 217.7,72.3 218.4,72.3 218.1,71.3 	"/>
	<path class="st1" d="M215.1,78.2c0,1,0.4,1.7,0.9,1.7c0.5,0,0.7-0.4,0.7-1.4c0-1.1-0.4-1.7-0.8-1.7
		C215.4,76.8,215.1,77.2,215.1,78.2z"/>
	<path class="st1" d="M210.1,66.4c-1.6,0-3,0.2-4,0.8c-1.6,0.9-2.3,2.6-2.3,4.8l0,21.9h0.3c0.2-2.7,1.9-3.4,4.9-3.4h13.1V66.4
		L210.1,66.4z M212.9,70.2h1.2l1.8,2.2h0v-0.7c0-0.6,0-0.8,0-1c0-0.2-0.2-0.3-0.5-0.3v-0.2h1.4v0.2c-0.3,0-0.4,0.1-0.4,0.3
		c0,0.2,0,0.5,0,1v2h-0.5l-2-2.5h0v1c0,0.6,0,0.8,0,1c0,0.2,0.2,0.3,0.5,0.3v0.2H213v-0.2c0.2,0,0.4-0.1,0.4-0.3c0-0.2,0-0.5,0-1v-1
		c0-0.4,0-0.5-0.1-0.6c-0.1-0.1-0.2-0.1-0.4-0.2L212.9,70.2L212.9,70.2z M217.7,78.2c0,1.1-0.8,1.8-1.8,1.8c-1.1,0-1.8-0.8-1.8-1.8
		c0-0.9,0.6-1.9,1.8-1.9C216.9,76.5,217.7,77.2,217.7,78.2z M213.7,79.8V80h-1.7v-0.2c0.4,0,0.4-0.1,0.4-0.6v-1.8
		c0-0.6,0-0.6-0.4-0.6v-0.2h1.7v0.2c-0.4,0-0.4,0.1-0.4,0.6v1.8C213.3,79.7,213.3,79.8,213.7,79.8z M210.9,73.4
		c0.4,0,0.4-0.1,0.4-0.6V71c0-0.6,0-0.6-0.4-0.6v-0.2h1.7v0.2c-0.4,0-0.4,0.1-0.4,0.6v1.8c0,0.6,0,0.6,0.4,0.6v0.2h-1.7V73.4z
		 M211,79.8V80h-1.9v-0.2c0.4,0,0.5-0.1,0.5-0.6v-2.3h-0.1c-0.4,0-0.5,0.1-0.6,0.2c-0.1,0.1-0.1,0.2-0.2,0.5h-0.2
		c0-0.4,0.1-0.8,0.1-1.1h0.2c0.1,0.1,0.1,0.1,0.3,0.1h2.1c0.1,0,0.2,0,0.3-0.1h0.2c0,0.2,0,0.7,0.1,1.1l-0.2,0
		c-0.1-0.3-0.1-0.5-0.2-0.5c-0.1-0.1-0.3-0.1-0.5-0.1h-0.1v2.3C210.5,79.7,210.5,79.8,211,79.8z M207.4,73.6h-1.3v-0.2
		c0.3,0,0.4-0.1,0.4-0.3c0-0.2,0.1-0.4,0.1-0.9l0.1-1.1c0-0.7,0-0.7-0.4-0.8v-0.2h1.2l0.9,2.1l0.8-2.1h1.3v0.2
		c-0.4,0-0.4,0.1-0.4,0.6l0.1,1.8c0,0.6,0,0.6,0.4,0.6v0.2h-1.7v-0.2c0.4,0,0.4-0.1,0.4-0.6l0-1.9h0l-1,2.7H208l-1-2.5h0l0,1.2
		c0,0.5,0,0.7,0,0.9c0,0.2,0.1,0.2,0.5,0.3L207.4,73.6L207.4,73.6z M212.1,86.4h-1.7v-0.2c0.4,0,0.4-0.1,0.4-0.6l0-1.9h0l-1,2.7
		h-0.3l-1-2.5h0l0,1.2c0,0.5,0,0.7,0,0.9c0,0.2,0.1,0.2,0.5,0.3v0.2h-1.3v-0.2c0.3,0,0.4-0.1,0.4-0.3c0-0.2,0.1-0.4,0.1-0.9l0.1-1.1
		c0-0.7,0-0.7-0.4-0.8v-0.2h1.2l0.9,2.1l0.8-2.1h1.3v0.2c-0.4,0-0.4,0.1-0.4,0.6l0.1,1.8c0,0.6,0,0.6,0.4,0.6L212.1,86.4L212.1,86.4
		z M215.1,86.4h-2.7v-0.2c0.4,0,0.5-0.1,0.5-0.6v-1.8c0-0.6,0-0.6-0.4-0.6v-0.2h2.5c0,0.1,0,0.5,0.1,0.9l-0.2,0
		c-0.1-0.3-0.1-0.4-0.2-0.5c-0.1-0.1-0.3-0.1-0.5-0.1H214c-0.2,0-0.2,0-0.2,0.2v1h0.3c0.5,0,0.5,0,0.5-0.4h0.2v1.3h-0.2
		c-0.1-0.5-0.1-0.5-0.5-0.5h-0.3v0.9c0,0.3,0,0.4,0.1,0.5c0.1,0,0.2,0,0.4,0c0.2,0,0.4,0,0.6-0.2c0.1-0.1,0.2-0.3,0.3-0.5l0.2,0
		C215.3,85.7,215.2,86.2,215.1,86.4z M218.8,86.4h-1.7v-0.2l0.2,0c0.2,0,0.2-0.1,0.1-0.3l-0.2-0.5h-0.9l-0.2,0.5
		c-0.1,0.2-0.1,0.3,0.2,0.3l0.2,0v0.2h-1.2v-0.2c0.3,0,0.4-0.1,0.5-0.5l1.1-2.7l0.4-0.1l0.4,1c0.2,0.6,0.5,1.3,0.7,1.8
		c0.2,0.5,0.3,0.5,0.5,0.5L218.8,86.4L218.8,86.4z M220.1,73.6h-1.7v-0.2l0.2,0c0.2,0,0.2-0.1,0.1-0.3l-0.2-0.5h-0.9l-0.2,0.5
		c-0.1,0.2-0.1,0.3,0.2,0.3l0.2,0v0.2h-1.2v-0.2c0.3,0,0.4-0.1,0.5-0.5l1.1-2.7l0.4-0.1l0.4,1c0.2,0.6,0.5,1.3,0.7,1.8
		c0.2,0.5,0.3,0.5,0.5,0.5L220.1,73.6L220.1,73.6z"/>
</g>
<circle class="st1" cx="196.9" cy="129.1" r="1.4"/>
<circle class="st1" cx="210.9" cy="131.4" r="1.4"/>
<path class="st1" d="M158.3,53.4L158.3,53.4L158.3,53.4z"/>
<path class="st1" d="M216.7,28.3L216.7,28.3L216.7,28.3z"/>
<path class="st1" d="M239.1,55.9L239.1,55.9L239.1,55.9z"/>
<path class="st1" d="M249.9,101L249.9,101L249.9,101z"/>
<circle class="st1" cx="203" cy="31" r="1.4"/>
<circle class="st1" cx="236" cy="44" r="1.4"/>
<g>
	<path class="st1" d="M167.8,103.7c0.5,0.8,0.8,1.6,0.8,2.4c0,1-0.3,1.8-2.1,3l-5,3.6l-0.9-1.3c0,0,5.1-3.7,5.2-3.7
		c0.9-0.6,1.3-1.1,1.3-1.8c0-0.4-0.2-0.9-0.5-1.4c-0.5-0.7-1.1-1-1.7-1c-0.5,0-1.1,0.4-2.1,1.1l-4.7,3.2l-0.9-1.3l4.5-3
		c1.2-0.9,2.2-1.5,3.2-1.5C166.2,101.9,167.2,102.8,167.8,103.7z"/>
</g>
<g>
	<path class="st1" d="M151.7,93.9l9.5-3.3l0.5,1.4l-5.5,6.7l6.9-2.7l0.5,1.4l-9.4,3.6l-0.5-1.4l5.5-6.7l-7,2.5L151.7,93.9z"/>
</g>
<g>
	<path class="st1" d="M150.3,86.3l10-1.5l0.2,1.6l-10,1.5L150.3,86.3z"/>
</g>
<g>
	<path class="st1" d="M150,74.2l0-1.7l10,4.1l-0.1,1.7l-10.2,3.1l0-1.7l8.3-2.3L150,74.2z"/>
</g>
<path class="st1" d="M159.1,51.6c-1.4,0-2.1,0.8-3,2.5l-1.2,2.1l8.9,4.8l0.8-1.4l-3.7-2l0.2-0.4c0.6-1.1,0.8-1.3,2.4-1.2l2.9,0.3
	l0.8-1.5l-3.3-0.3c-0.7-0.1-1.2-0.1-1.6,0c-0.1,0-0.3,0.1-0.5,0.2c0-0.2,0.1-0.4,0.1-0.5c0-0.3,0-0.6-0.1-0.8
	c-0.2-0.6-0.6-1.1-1.3-1.4C160.1,51.8,159.6,51.6,159.1,51.6z M157.3,54.7c0.6-1.1,1-1.5,1.6-1.5c0.2,0,0.5,0.1,0.8,0.2
	c0.4,0.2,0.7,0.6,0.8,0.9c0,0.1,0.1,0.3,0.1,0.4c0,0.6-0.3,1.2-0.7,1.8l-0.2,0.4l-2.8-1.5L157.3,54.7z"/>
<g>
	<path class="st1" d="M170.2,37.4l1.3-1l6.1,8l-1.3,1L170.2,37.4z"/>
</g>
<g>
	<path class="st1" d="M175.7,33.4l6.5-3.4l0.6,1.2l-2.5,1.3l4,7.7l-1.4,0.7l-4-7.7l-2.6,1.3L175.7,33.4z"/>
</g>
<g>
	<path class="st1" d="M192,27l1.7-0.5l-1.4,6.8l1.1,3.8l-1.5,0.4l-1.1-3.8l-4.8-5l1.7-0.5l3.4,3.6L192,27z"/>
</g>
<g>
	<path class="st1" d="M222.8,40.8l5.1-8.7l4.8,2.8l-0.7,1.2l-3.4-2l-1.4,2.4l3.2,1.9l-0.7,1.2l-3.2-1.9l-2.3,3.9L222.8,40.8z"/>
</g>
<g>
	<path class="st1" d="M248.8,63.3l3.7-4.4l0.6,1.7l-2.7,3.1l4.1,0.9l0.5,1.6l-5.6-1.3l-4,4.7l-0.6-1.7l3-3.5l-4.5-1l-0.5-1.7
		L248.8,63.3z"/>
</g>
<g>
	<path class="st1" d="M245.9,73.2l10.1-0.8l0.5,5.6l-1.4,0.1l-0.3-4l-2.8,0.2l0.3,3.8l-1.3,0.1l-0.3-3.8l-4.6,0.4L245.9,73.2z"/>
</g>
<path class="st1" d="M250.3,82.2c-1.2,0-2.2,0.3-3.1,0.9c-1.5,1.1-1.8,2.7-1.8,3.6c0,3.4,3.2,4.8,5.6,4.8c1.2,0,2.2-0.3,3.1-0.9
	c1.7-1.2,1.8-3.1,1.8-3.7C255.9,83.9,253.2,82.2,250.3,82.2z M251.1,89.9c-2,0-4.3-1.1-4.3-3.1c0-0.7,0.3-1.7,1.1-2.3
	c0.6-0.4,1.4-0.7,2.3-0.7c1,0,2.8,0.3,3.8,1.6c0.3,0.4,0.5,1,0.5,1.5c0,0.8-0.3,1.7-1.1,2.3C252.8,89.7,252,89.9,251.1,89.9z"/>
<path class="st1" d="M244.5,48.6c-1,0-2.1,0.3-3.2,1c-1.9,1.2-2.6,3-2.6,4.3c0,0.8,0.2,1.7,0.7,2.4c1.1,1.7,2.7,2.1,3.8,2.1
	c1,0,2.1-0.3,3.2-1c1.2-0.8,2.6-2.3,2.6-4.3c0-0.8-0.2-1.6-0.7-2.4C247.4,49.3,246,48.6,244.5,48.6z M242.9,56.8
	c-0.9,0-1.7-0.4-2.3-1.3c-0.3-0.5-0.4-0.9-0.4-1.4c0-1.1,0.7-2.3,2-3.2c0.9-0.6,1.7-0.8,2.5-0.8c1,0,1.8,0.4,2.3,1.3
	c0.3,0.5,0.5,1,0.5,1.5c0,1.1-0.7,2.2-2,3C244.6,56.5,243.7,56.8,242.9,56.8z"/>
<path class="st1" d="M216.9,27.8c-2.1,0-3.9,1.4-4.7,3.9c-0.2,0.6-0.3,1.1-0.3,1.6c0,1,0.2,1.8,0.6,2.6c0.9,1.7,2.6,2.3,3.9,2.3
	c0.7,0,1.4-0.2,2.1-0.5c1.7-0.9,2.8-3.1,2.8-5.2c0-0.9-0.2-1.7-0.6-2.5C220,28.6,218.5,27.8,216.9,27.8z M216.4,36.8
	c-0.7,0-1.8-0.4-2.4-1.4c-0.3-0.5-0.4-1.2-0.4-1.8c0-1.8,1.2-4.3,3.4-4.3c1.2,0,2.8,0.9,2.8,3.2C219.8,33.8,218.8,36.8,216.4,36.8z"
	/>
<path class="st1" d="M161,64.4l1.4,0.4l-1.5,5.5l-9.8-2.7l1.7-5.6l1.3,0.4l-1.2,4l2.7,0.7l1-3.7l1.3,0.4l-1,3.7l3,0.8L161,64.4z"/>
<g>
	<g>
		<path class="st1" d="M163.6,43.3c1.4-1.6,2.8-1.5,2.8-1.5l0.2,1.3c0,0-1.1,0-2,1c-0.4,0.4-0.6,0.9-0.6,1.3c0,0.3,0.1,0.6,0.4,0.8
			c0.7,0.6,1.9-0.1,2.6-0.4c0.6-0.2,1.4-0.6,2.2-0.6c0.6,0,1.2,0.2,1.8,0.7c0.7,0.6,1,1.4,1,2.1c0,0.9-0.3,1.6-1,2.4
			c-1.3,1.4-3,1.6-3,1.6l-0.3-1.4c1-0.2,1.8-0.6,2.3-1.2c0.4-0.4,0.5-0.9,0.5-1.3c0-0.4-0.2-0.7-0.5-1c-0.3-0.2-0.6-0.3-0.9-0.3
			c-0.6,0-1.4,0.4-2.1,0.6c-1.2,0.5-2.5,0.9-3.7-0.1c-0.6-0.5-0.9-1.2-0.9-1.9C162.6,44.9,162.9,44,163.6,43.3z"/>
	</g>
</g>
<path class="st1" d="M243.2,95.3L247,97l-0.2,0.4c-0.5,1.2-0.7,1.4-2.3,1.4l-2.9,0l-0.7,1.6l3.3,0c0.7,0,1.2,0,1.6-0.2
	c0.1-0.1,0.3-0.1,0.4-0.3c0,0.1,0,0.2,0,0.3c0,0.4,0.1,0.7,0.2,1.1c0.5,1.1,1.7,1.6,2.6,1.6c1.6,0,2.2-1,3-2.7
	c0-0.1,0.9-2.2,0.9-2.2l-9.2-4.1L243.2,95.3z M249.2,101.2c-0.5,0-1.2-0.3-1.5-1c-0.1-0.2-0.1-0.4-0.1-0.6c0-0.6,0.3-1.1,0.5-1.7
	l0.2-0.4l2.9,1.3l-0.3,0.8C250.3,100.9,249.9,101.2,249.2,101.2z"/>
<path class="st1" d="M237.9,104.8c-1,1.3-1.8,2.5-1.8,4c0,1.3,0.6,2.7,2.1,3.9c1,0.8,2.1,1.2,3.2,1.2c1.4,0,2.5-0.4,4.3-2.6l1.6-2
	l-7.9-6.3L237.9,104.8z M241.5,112.4c-0.8,0-1.6-0.3-2.3-0.9c-0.8-0.6-1.6-1.6-1.6-2.9c0-0.9,0.5-1.7,1.2-2.6l0.7-0.8l5.8,4.6
	l-0.4,0.6C243.6,111.6,242.9,112.4,241.5,112.4z"/>
<path class="st1" d="M260.9,79.3c0-31.8-26-57.8-57.9-57.8c-31.9,0-57.9,25.9-57.9,57.8c0,19.1,9.4,36.9,25.2,47.7
	c1.6,5.8,6.9,10.1,13.1,10.1c1.7,0,3.4-0.3,4.9-0.9c2.1,0.7,4.3,1.3,6.5,1.7c-0.6,1.8-1.5,3.4-2.4,4.9c0,0,0,0,0,0c0,0,0,0-0.1,0
	l1.2,1.2c0.3-0.2,0.7-0.3,1-0.3c1.2,0,2.2,1,2.2,2.2c0,1.2-1,2.2-2.2,2.2c-1,0-2-0.7-2.4-1.4c0,0-0.3,1-0.3,2.3
	c0,4.1,4.5,8.9,10.8,10.9c6.3-2,10.8-6.7,10.8-10.9c0-1.4-0.3-2.3-0.3-2.3c-0.5,0.6-1.3,1.4-2.4,1.4c-1.2,0-2.2-1-2.2-2.2
	c0-1.2,1-2.2,2.2-2.2c0.4,0,0.8,0.1,1.1,0.3l1.2-1.2c0,0,0,0,0,0c-0.7-1.6-1.1-3-1.5-4.4c10.4-1.4,19.2-5.8,26.2-13.1l0,0
	C252.6,114.2,260.9,97.5,260.9,79.3z M183.6,135.4c-6.6,0-11.9-5.4-11.9-11.9c0-2.1,0.5-4,1.4-5.7c0.6,0.6,1.3,1.1,1.9,1.7
	c-0.6,1.2-0.9,2.6-0.9,4c0,3.6,1.8,6.5,5.2,8.6c2,1.2,4.2,2.2,6.5,3.1C185.2,135.4,184.4,135.4,183.6,135.4z M203,118.1
	c-2.5,0-4.9-0.2-7.3-0.7c-2.3-4.5-7-7.4-12.1-7.4c-1.3,0-2.5,0.2-3.6,0.5c-9.8-7.3-15.7-18.9-15.7-31.1c0-21.4,17.4-38.8,38.8-38.8
	c21.4,0,38.8,17.4,38.8,38.8S224.4,118.1,203,118.1z M211.7,118.7c-1.2,1.7-1.9,4-2.1,6.3c-3.7-0.9-7-2.2-9.9-3.5
	c0.6-1.1,2.1-1.8,3.3-1.8C206,119.7,208.9,119.3,211.7,118.7z M199.4,119.5c-0.5,0.4-0.9,0.8-1.2,1.3c-1.5-0.7-3.3-1.6-4.5-2.3
	C195.4,118.9,197.6,119.4,199.4,119.5z M183.6,111.5c4,0,7.7,2,9.9,5.3c-1.9-0.5-3.8-1.1-5.6-1.9l0,0l-0.1,0
	c-1.3-0.6-2.7-0.9-4.1-0.9c-3.2,0-6,1.6-7.7,3.9c-0.7-0.4-1.5-0.8-2.2-1.3C176,113.6,179.5,111.5,183.6,111.5z M211,142
	c-2.1,0-3.9,1.5-3.9,3.8c0,2.3,1.8,3.8,3.9,3.8c0.3,0,0.6-0.1,0.9-0.1c-0.4,3.2-4.2,6.8-9,8.4c-4.8-1.6-8.5-5.2-9-8.4
	c0.3,0.1,0.6,0.1,0.9,0.1c2.3,0,3.9-1.6,3.9-3.8c0-2.1-1.7-3.8-3.8-3.8c0.7-1.2,1.3-2.5,1.7-3.8c2.7,0.5,5.3,0.7,7.7,0.7
	c2,0,3.9-0.1,5.8-0.3c0.3,1.1,0.6,2.2,1.1,3.4C211.2,142,211.1,142,211,142z M204.4,137.3c-7.8,0-17.4-2.6-24.1-6.6
	c-2-1.2-4.4-3.4-4.4-7.2c0-1,0.2-2,0.6-2.9c2.5,2.1,5.1,4,6.7,4.9c0.4,0.2,0.6,0.3,1,0.3c1,0,1.9-0.8,1.9-1.9c0-0.8-0.4-1.4-1.1-1.7
	c-1.4-0.6-4.3-1.8-7.4-3.4c1.4-1.9,3.7-3.1,6.2-3.1c1.2,0,2.3,0.3,3.3,0.7l2.1,1.2c6.8,4.1,24.2,14.7,45.1,8.9
	C226.3,133.7,216.5,137.3,204.4,137.3z M236.9,124c-9.4,3.3-18.2,3.1-25.7,1.4c0.2-3.3,1.6-6.9,3.7-7.6
	c16.5-5.1,28.5-20.5,28.5-38.6c0-22.3-18.2-40.4-40.5-40.4S162.6,57,162.6,79.3c0,12.4,5.8,24.2,15.5,31.8c-2.3,1-4.3,2.7-5.7,4.7
	c-0.7-0.5-1.5-1-2.1-1.6l-0.4,0.4c0.4,0.5,1.1,1.2,1.9,2c-1.2,2-1.9,4.4-1.9,6.9c0,0.4,0,0.8,0.1,1.2
	c-14.5-10.6-23.1-27.4-23.1-45.4c0-31,25.2-56.1,56.1-56.1s56.1,25.2,56.1,56.1C259.2,97,251.1,113.3,236.9,124z"/>
</svg>
