<?xml version="1.0" encoding="utf-8"?>
<!-- Generator: Adobe Illustrator 19.0.0, SVG Export Plug-In . SVG Version: 6.00 Build 0)  -->
<svg version="1.1"
	 id="svg2443" xmlns:dc="http://purl.org/dc/elements/1.1/" xmlns:rdf="http://www.w3.org/1999/02/22-rdf-syntax-ns#" xmlns:cc="http://creativecommons.org/ns#" xmlns:svg="http://www.w3.org/2000/svg"
	 xmlns="http://www.w3.org/2000/svg" xmlns:xlink="http://www.w3.org/1999/xlink" x="0px" y="0px" viewBox="-339 136 500 500"
	 style="enable-background:new -339 136 500 500;" xml:space="preserve">
<style type="text/css">
	.st0{fill:#231F20;}
	.st1{fill:url(#path2520_1_);}
	.st2{fill:url(#path2546_1_);}
	.st3{fill:url(#path2572_1_);}
	.st4{fill:url(#path2596_1_);}
	.st5{fill:url(#path2632_1_);}
	.st6{fill:url(#path2660_1_);}
	.st7{fill:url(#path2682_1_);}
	.st8{fill:url(#path2708_1_);}
	.st9{fill:url(#path2738_1_);}
	.st10{fill:url(#path2764_1_);}
	.st11{fill:#7F7D7E;}
	.st12{fill:url(#path2810_1_);}
	.st13{fill:url(#path2832_1_);}
	.st14{fill:url(#path2864_1_);}
	.st15{fill:url(#path2890_1_);}
	.st16{fill:url(#path2918_1_);}
	.st17{fill:url(#path2942_1_);}
	.st18{fill:url(#path2966_1_);}
	.st19{fill:url(#path2992_1_);}
	.st20{fill:url(#path3016_1_);}
	.st21{fill:url(#path3040_1_);}
	.st22{fill:url(#path3064_1_);}
	.st23{fill:url(#path3086_1_);}
	.st24{fill:url(#path3108_1_);}
	.st25{fill:url(#path3130_1_);}
	.st26{fill:url(#path3154_1_);}
	.st27{fill:url(#path3190_1_);}
	.st28{fill:url(#path3218_1_);}
	.st29{fill:#0D224A;}
</style>
<g>
	<g id="g3256" transform="matrix(3.9388469,0,0,4.1573985,-2268.3414,-166.33805)">
		<path id="path2494" class="st0" d="M572.5,143.1c-0.8-2.5-4.3-9-7-12.6c-0.6-0.7-0.4-1.2-0.1-1.4c0.3-0.3,1.3-1.1,2.5-2.5
			c1.2-1.4,1.5-3,0.7-5.2s-3.7-7.6-4.2-9.4c-0.7-2.1-0.7-2.9-0.4-4c0.5-1.3,1.2-1.4,1.7-1.3c0.3,0,0.5,0.3,0.5,0.5
			c0,0.6,0,1.3,0.6,2.8c0.9,2.3,3.2,3.9,3.9,4.2c0.5,0.2,0.6-0.2,0.6-0.4s-0.8-3.1-1.4-5.3c-0.6-2.3-0.8-2.8-1.4-3.3
			c-0.8-0.7-2.1-1.2-3.2-1.2c-2.4,0.1-3.5,2.4-3.6,2.6s-0.2,0.3-0.4,0.2c-0.7-0.5-2.7-2.2-2.9-3.2c-0.1-0.7-0.2-0.7-0.8-0.9
			c-2.4-0.9-4.5-1.8-6.7-2.2c-0.9-0.2-0.9-0.3-2.1,0c-1.9,0.4-3,0.7-4.3,1.5c-0.7,0.4-0.8,0.7-1,0.8c-0.1,0.2-0.3,0.4-0.5,0.4
			c-0.5,0.2-2.2,0.7-2.7,1.1c-0.4,0.2-0.6,0.5-0.4,0.8c0.3,0.7,1.3,2.2,1.7,2.6c0.3,0.2,0.9,0.4,1,0.4c0.2,0,0.3,0.1,0.3,0
			c0.1-0.1,0.1-0.3,0.4-0.6c0.5-0.3,1.3-0.6,1.8-0.6c0.4,0,0.6,0,0.7,0.1s0.6,0.6,0.7,1c0.2,0.5,0.1,0.6-0.2,0.7
			c-0.3,0.1-0.9,0.3-1.9,0.4c-0.8,0.1-1.1-0.2-1.1-0.2c0-0.1-0.2-0.1-0.3,0c-0.2,0.2-0.4,0.3-0.7,0.5c-0.2,0.1-0.3,0.3-0.1,0.6
			c0.6,0.9,1.2,2,1.9,2.2c0.6,0.2,0.8,0,1.4-0.5c0.6-0.4,0.8-0.4,1-0.3s0.5,0.4,0.4,0.7c-0.2,0.5-1.1,1.6-1.3,1.8
			c-0.2,0.2-0.4,0.4-0.7,0.2c-0.5-0.2-7.2-3.7-8.1-4.1c-1-0.4-1.7-0.5-2.6-0.6c-0.7,0-1.9,0-2.5,0.2c-0.5,0.1-0.7,0.3-1.2,0.7
			c-0.7,0.6-1.3,1.3-1.3,1.9c0,0.5,0.5,1.3,0.5,1.4c0.1,0.1,0.2,0.2,0.4,0.2c0.3,0,0.9-0.4,1.8-0.3c0.7,0.1,0.8,0.7,0.8,1.1
			c0,0.1,0.1,0.3,0.3,0.3c0.3,0,0.7,0,1.3,0.3c0.7,0.3,2,1.3,2.2,1.5c0.2,0.2,0.2,0.4-0.2,0.4c-1.6,0.2-4.1,0.7-5.2,1
			c-0.8,0.3-1.8,0.7-2.1,1.2c-0.4,0.7-0.8,1.7-1,2.5c-0.1,0.7,0.7,1.7,0.8,1.9s0.3,0.2,0.5,0.1c0.4-0.2,1.3-0.8,2.2-0.8
			c0.6,0,0.7,0.5,0.9,0.7c0.1,0.2,0.3,0.1,0.7-0.1c0.8-0.3,5.8-0.2,7.6-0.1c0.7,0,1.9,0.2,2.7,0.6c0.8,0.5,2.2,1.9,2.2,1.9
			s-2,3.3-3,5.2c-0.9,1.8-1.7,3.1-2.1,3.9c-0.3,0.7-0.6,1.7-0.6,2.5c0.1,1.1,0.1,1.8,0.1,2.2c0,0.5-0.5,0.5-1,0.7
			c-0.8,0.2-2.5,0.4-3.9,0.7c-1.2,0.3-1.7,0.6-2,1.6c-0.2,0.7-0.5,2.6-0.5,3.5c0,0.4,0,0.6,0.4,0.5c0.3-0.1,0.9-0.2,1.9-0.2
			c1.1-0.1,2.4-0.1,3.4-0.1c1.8,0,7,0.3,7.4,0.4c0.5,0,0.6,0,0.5-0.3c0-0.4-0.1-1.7-0.1-2.5c0-0.7-0.2-1.6,0.6-2.3
			c0.7-0.7,6.1-6.7,6.4-7s0.5-0.6,0.8-0.2s4.8,3.6,5.7,4.2c0.9,0.7,1.7,0.8,2.7,0.8c0.7,0,0.9,1.3,0.3,1.4c-0.7,0.1-1.6,0.3-2.2,0.5
			c-1,0.3-1.4,0.6-1.7,1.3c-0.3,0.6-0.6,3.5-0.6,3.7c0,0.2,0,0.5,0.3,0.4c1.3-0.3,3.3-0.4,5.5-0.3c2.5,0.1,5,0.3,5.2,0.3
			c0.4,0,0.4,0,0.6-0.3c0.3-0.5,1.2-1.6,2.1-2.2C572.7,143.8,572.7,143.6,572.5,143.1 M562.9,125.5c-0.7,0.2-1,0-1.3-0.3
			c-0.3-0.3-2.8-3.4-3.7-4.2c-0.4-0.5-0.7-1.5,0.5-2c1-0.4,2.8-0.9,3.3-1.2s0.7-0.6,0.8-1c0-0.6,0-1.1,0-1.3s0.3-0.4,0.4-0.1
			c0.1,0.2,0.6,1,1.1,2.1c0.8,1.5,1.9,3.5,2.2,4.3c0.3,0.7,0.2,1.4-0.3,2C565.3,124.5,563.4,125.3,562.9,125.5"/>
		
			<linearGradient id="path2520_1_" gradientUnits="userSpaceOnUse" x1="592.0745" y1="112.9521" x2="552.4308" y2="52.233" gradientTransform="matrix(5.4191 0 0 -6.037 -2637.0964 788.0891)">
			<stop  offset="0" style="stop-color:#D3D3D3"/>
			<stop  offset="0.3681" style="stop-color:#4F4C4C"/>
			<stop  offset="0.3681" style="stop-color:#4F4C4C"/>
			<stop  offset="0.8132" style="stop-color:#B0AFAF"/>
			<stop  offset="1" style="stop-color:#231F20"/>
		</linearGradient>
		<path id="path2520" class="st1" d="M565.5,104.3c-2,0-3.9,2.2-3.6,5.6l0,0c0.3,2.1,0.6,3,1.1,4.4l0,0c0.3,0.7,3.7,7,3.8,7.7l0,0
			c0.2,0.9,0,1.6-0.7,2.2l0,0c-0.8,0.7-2.2,1.6-3.1,1.9l0,0c-0.2,0.1-0.4,0.1-0.6,0.1l0,0c-0.2,0-0.7-0.1-1.7-1.3l0,0l4.3,5.8
			c-0.6-0.7-0.8-1.3-0.7-1.8l0,0c0.1-0.5,0.9-1,1.8-1.7l0,0c0.9-0.7,1.9-1.6,2.3-2.8l0,0c0.1-0.4,0.2-0.7,0.2-1l0,0
			c0-1.1-0.6-2.4-1.2-3.8l0,0c-0.8-1.9-3.3-5.8-4-8.6l0,0c-0.2-0.7-0.3-1.3-0.3-1.9l0,0c0-1.6,0.7-2.6,1.5-2.9l0,0
			c0.4-0.2,0.7-0.2,1-0.2l0,0c0.5,0,0.7,0.1,0.9,0.2l0,0c0.2,0.1,0.3,0.4,0.3,0.7l0,0v0.1c0,0.1,0,0.2,0,0.4l0,0
			c0,0.7,0.1,2.1,0.8,3.5l0,0c0.9,1.8,2.6,2.8,3.2,3l0,0c0.1,0-1.5-5.7-1.8-6.7l0,0C568.9,105.6,568,104.4,565.5,104.3L565.5,104.3
			C565.6,104.3,565.6,104.3,565.5,104.3L565.5,104.3C565.6,104.3,565.5,104.3,565.5,104.3"/>
		
			<linearGradient id="path2546_1_" gradientUnits="userSpaceOnUse" x1="584.9656" y1="110.3601" x2="592.1533" y2="126.8225" gradientTransform="matrix(5.4191 0 0 -6.037 -2637.0964 788.0891)">
			<stop  offset="0" style="stop-color:#B2B1B1"/>
			<stop  offset="0.2" style="stop-color:#B2B1B1"/>
			<stop  offset="0.9897" style="stop-color:#656263"/>
			<stop  offset="0.9897" style="stop-color:#656263"/>
			<stop  offset="1" style="stop-color:#656263"/>
		</linearGradient>
		<path id="path2546" class="st2" d="M538.5,117c0.4,0.4-0.3,0.4-2.2,0.6l0,0c-2.1,0.2-4.1,0.6-5.1,1l0,0c-0.7,0.3-1.2,0.5-1.6,1.2
			l0,0c0,0-0.7,1.4-0.7,2l0,0c0,0.3,0,0.4,0.1,0.7l0,0c0.1,0.1,0.3-3.7,5.1-3.9l0,0C538.3,118.3,539.4,117.8,538.5,117L538.5,117
			L538.5,117L538.5,117z"/>
		
			<linearGradient id="path2572_1_" gradientUnits="userSpaceOnUse" x1="591.2844" y1="112.6397" x2="582.4608" y2="113.4735" gradientTransform="matrix(5.4191 0 0 -6.037 -2637.0964 788.0891)">
			<stop  offset="0" style="stop-color:#4F4C4C"/>
			<stop  offset="0.3586" style="stop-color:#FFFFFF"/>
			<stop  offset="0.3586" style="stop-color:#FFFFFF"/>
			<stop  offset="0.8241" style="stop-color:#4F4C4C"/>
			<stop  offset="1" style="stop-color:#393536"/>
		</linearGradient>
		<path id="path2572" class="st3" d="M565.7,106.1c-0.3,0-0.6,0.1-0.9,0.2l0,0c-0.7,0.3-1.3,1.1-1.3,2.6l0,0v0.4c0,0,0.1-1,0.3-1.5
			l0,0c0.5-1.3,1.2-1.5,1.8-1.5l0,0c0.4,0,0.6,0.1,0.7,0.3l0,0c0.1,0.1,0.2,0.3,0.2,0.5l0,0c0,0.6,0,1.2,0.6,2.7l0,0
			c0,0.1,0.1,0.2,0.1,0.3l0,0c-0.5-1.2-0.6-2.2-0.6-2.8l0,0c0-0.2,0-0.4,0-0.4l0,0C566.6,106.2,566.1,106.1,565.7,106.1L565.7,106.1
			L565.7,106.1"/>
		
			<linearGradient id="path2596_1_" gradientUnits="userSpaceOnUse" x1="586.1591" y1="109.8786" x2="593.3149" y2="126.268" gradientTransform="matrix(5.4191 0 0 -6.037 -2637.0964 788.0891)">
			<stop  offset="0" style="stop-color:#D3D3D3"/>
			<stop  offset="0.3681" style="stop-color:#B2B1B1"/>
			<stop  offset="0.9897" style="stop-color:#231F20"/>
			<stop  offset="1" style="stop-color:#231F20"/>
		</linearGradient>
		<path id="path2596" class="st4" d="M538.7,117.2c0.2,0.4-0.5,0.3-2.4,0.5l0,0c-2.1,0.2-4.1,0.6-5.1,0.9l0,0
			c-0.7,0.3-1.2,0.5-1.6,1.2l0,0c0,0-0.7,1.4-0.7,2l0,0c0,0.3,0,0.4,0.2,0.7l0,0c0.2,0.4,0.4,0.4,0.7,0.2l0,0
			c0.3-0.2,1.3-0.7,2.1-0.7l0,0c0.7,0,0.9,0.4,1,0.7l0,0c0.1,0.2,0.4,0.1,0.4,0.1l0,0c0.3-0.1,0.6-0.2,1.6-0.2l0,0
			c1.2-0.1,5.9,0,7.7,0l0,0c1.6,0,7.7,4.9,7.8,4.9l0,0l0.3-0.7C548.3,125.1,540.6,118.9,538.7,117.2L538.7,117.2L538.7,117.2
			L538.7,117.2z"/>
		
			<linearGradient id="path2632_1_" gradientUnits="userSpaceOnUse" x1="590.6412" y1="105.2431" x2="460.6972" y2="237.4383" gradientTransform="matrix(5.4191 0 0 -6.037 -2637.0964 788.0891)">
			<stop  offset="0" style="stop-color:#918F90"/>
			<stop  offset="0.1209" style="stop-color:#9C9A9B"/>
			<stop  offset="0.1209" style="stop-color:#9C9A9B"/>
			<stop  offset="0.1703" style="stop-color:#7B7979"/>
			<stop  offset="0.3077" style="stop-color:#918F90"/>
			<stop  offset="0.4725" style="stop-color:#F4F4F4"/>
			<stop  offset="0.8407" style="stop-color:#7F7D7E"/>
			<stop  offset="0.8407" style="stop-color:#7F7D7E"/>
			<stop  offset="0.9615" style="stop-color:#4F4C4C"/>
			<stop  offset="1" style="stop-color:#4F4C4C"/>
		</linearGradient>
		<path id="path2632" class="st5" d="M532.5,110.1c-0.4,0.1-0.7,0.1-1,0.5l0,0c-0.4,0.4-1.1,0.8-1.3,1.4l0,0
			c-0.1,0.2-0.2,0.4-0.1,0.5l0,0c0,0.3,0.2,0.5,0.2,0.6l0,0c0.1,0.1,0.2,0.1,0.4,0.1l0,0c0.4-0.1,1.1-0.2,1.6-0.2l0,0
			c0.3,0,0.7,0.1,0.9,0.3l0,0c0.3,0.3,0.3,0.6,0.3,0.7l0,0c0,0.1,0,0.2,0.2,0.2l0,0c0.3,0,0.6,0,0.9,0.1l0,0
			c0.9,0.2,2.2,0.9,3.3,2.1l0,0c2.2,2.1,5,5.1,7.6,7.1l0,0c1.3,1,3.5,2.3,4.2,3.1l0,0c0.1,0.1-0.2,0.2-0.4,0.1l0,0
			c-0.1-0.1-1.3-1-1.6-1.1l0,0c-0.2-0.1-0.5,0-0.7,0.4l0,0c-2.1,2.8-4.4,7.6-5.4,9.8l0,0c-0.2,0.6-0.4,1.2-0.4,1.8l0,0
			c0,0.7,0.1,1.9,0.1,2.4l0,0c0,0.6-0.1,0.7-0.8,0.9l0,0c-1.2,0.2-3.9,0.7-4.6,0.8l0,0c-0.6,0.1-0.9,0.4-1.1,0.9l0,0
			c-0.3,0.8-0.6,2.2-0.6,2.5l0,0c0,0.2,0.1,0.4,0.3,0.3l0,0c1-0.3,2.5-0.5,4.7-0.4l0,0c2.2,0,5.9,0.4,6.4,0.5l0,0
			c0.2,0,0.4,0,0.4-0.2l0,0c0-0.2-0.1-1.2-0.1-2.5l0,0c0-1.3,1.1-2.2,2.7-3.9l0,0c1.6-1.7,5.4-5.4,5.5-5.5l0,0
			c0.1-0.1,0.2-0.2,0-0.4l0,0c-0.3-0.3-1.5-1.5-1.6-1.7l0,0c-0.1-0.1-0.2-0.3-0.2-0.4l0,0c0.1-0.1,0.2,0,0.4,0.2l0,0
			c0.7,0.6,8.8,7.1,9.4,7.3l0,0c0.6,0.3,0.9,0.3,1.4,0.4l0,0c0.4,0.1,0.7,0.7,0.7,1l0,0c0.1,0.5,0,1-0.6,1.1l0,0
			c-0.6,0.2-2.1,0.4-2.5,0.6l0,0c-0.6,0.2-0.8,0.4-1.1,0.9l0,0c-0.2,0.6-0.5,2.2-0.6,2.3l0,0c0,0.4,0.1,0.4,0.4,0.3l0,0
			c0.4-0.1,0.7-0.2,2.2-0.3l0,0c2.6-0.1,6.6,0.3,7,0.3l0,0c0.2,0,0.3-0.2,0.4-0.3l0,0c0.6-0.9,0.4-1.2,1.1-1.8l0,0
			c0.4-0.3,0.6-0.4,0.3-0.9l0,0c-2.4-5.5-4.7-9.2-8.4-13.9l0,0c-2.3-3.1-5.1-6.5-6.1-7.5l0,0l-11.1-6.4c-0.7-0.3-5.8-3-6.7-3.4l0,0
			c-0.9-0.5-1.6-0.8-2.5-1l0,0c-0.7-0.2-1.3-0.2-1.9-0.2l0,0C533.5,110,533,110,532.5,110.1"/>
		
			<radialGradient id="path2660_1_" cx="587.0897" cy="111.9823" r="29.557" gradientTransform="matrix(5.4191 0 0 -6.037 -2637.0964 788.0891)" gradientUnits="userSpaceOnUse">
			<stop  offset="0" style="stop-color:#FFFFFF"/>
			<stop  offset="0.467" style="stop-color:#FFFFFF"/>
			<stop  offset="0.7472" style="stop-color:#9C9A9B"/>
			<stop  offset="0.7472" style="stop-color:#9C9A9B"/>
			<stop  offset="0.8461" style="stop-color:#7B7979"/>
			<stop  offset="1" style="stop-color:#4F4C4C"/>
		</radialGradient>
		<path id="path2660" class="st6" d="M545,104.8c-1.6,0.5-3.7,1.3-3.7,1.3l0,0v0.1l0,0l0.2,0.4l0,0c0,0,0.1,0.3,0.4,0.5l0,0
			c0.3,0.2,0.7,0.3,0.7,0.3l0,0c0.1,0,0.1,0,0.2-0.1l0,0c0,0,0.3-0.7,1.4-0.9l0,0c0.6-0.2,1-0.2,1.2-0.2l0,0c0.3,0,0.7,0.2,1,0.4
			l0,0c0.4,0.4,0.7,1,0.8,1.4l0,0c0.1,0.3,0,0.7-0.3,0.8l0,0c-0.3,0.2-1.2,0.4-1.8,0.5l0,0c-0.6,0.1-1.1,0-1.5-0.2l0,0
			c-0.1,0-0.1,0-0.2,0l0,0c-0.1,0.1-0.2,0.2-0.5,0.4l0,0c-0.1,0-0.1,0.1,0,0.2l0,0c0.1,0.1,0.7,1.3,1.2,1.6l0,0
			c0.5,0.3,0.7,0.2,1.1-0.1l0,0c0.5-0.3,0.8-0.7,1.4-0.7l0,0c0.6,0,1,0.5,1,1l0,0c0.1,0.7-0.3,1-0.6,1.5l0,0c-0.3,0.4-0.7,0.9-1,1.3
			l0,0c-0.4,0.4-0.9,0.3-0.9,0.3l0,0c0,0,3,1.5,4.7,2.3l0,0c0.7,0.4,1.8,0,2.4-1.3l0,0c0.2-0.3,1.2-2.6,1.5-3.3l0,0
			c0.3-0.7,0.7-1.4,0-2.7l0,0c-0.7-1.3-2.5-3.7-3.3-4.6l0,0c-0.4-0.5-0.8-0.7-1.9-0.8l0,0c-0.1,0-0.3,0-0.4,0l0,0
			C547.5,104.3,546.4,104.5,545,104.8"/>
		
			<radialGradient id="path2682_1_" cx="587.5175" cy="110.6009" r="10.4383" gradientTransform="matrix(5.4191 0 0 -5.8174 -2637.0964 753.4497)" gradientUnits="userSpaceOnUse">
			<stop  offset="0" style="stop-color:#FFFFFF"/>
			<stop  offset="0.2276" style="stop-color:#FFFFFF"/>
			<stop  offset="1" style="stop-color:#231F20"/>
		</radialGradient>
		<path id="path2682" class="st7" d="M545.1,109.4c-0.6,0.1-1.1,0-1.5-0.2l0,0c-0.1,0-0.1,0-0.1,0l0,0c-0.1,0.1-0.2,0.2-0.5,0.3l0,0
			c-0.1,0-0.1,0.1,0,0.2l0,0c0.1,0.1,0.7,1.1,1.1,1.5l0,0c0.5,0.3,0.7,0.2,1.2-0.1l0,0c0.6-0.3,0.8-0.7,1.4-0.6l0,0l0.1-1.5
			C546.6,109.1,545.6,109.3,545.1,109.4"/>
		
			<radialGradient id="path2708_1_" cx="587.0959" cy="113.2684" r="12.3009" gradientTransform="matrix(5.4191 0 0 -6.037 -2637.0964 788.0891)" gradientUnits="userSpaceOnUse">
			<stop  offset="0" style="stop-color:#FFFFFF"/>
			<stop  offset="0.5714" style="stop-color:#F7F7F7"/>
			<stop  offset="0.5714" style="stop-color:#F7F7F7"/>
			<stop  offset="0.8626" style="stop-color:#231F20"/>
			<stop  offset="1" style="stop-color:#231F20"/>
		</radialGradient>
		<path id="path2708" class="st8" d="M541.4,106.2c0,0,0,0.1,0,0.2l0,0l0.2,0.4l0,0c0,0,0.1,0.2,0.4,0.4l0,0
			c0.3,0.2,0.6,0.2,0.7,0.3l0,0c0.1,0,0.1,0,0.2-0.1l0,0c0,0,0.3-0.7,1.4-0.9l0,0c0.6-0.2,1-0.2,1.2-0.2l0,0L545,105
			C543.4,105.4,541.4,106.1,541.4,106.2"/>
		
			<radialGradient id="path2738_1_" cx="588.4263" cy="111.8811" r="40.7477" gradientTransform="matrix(5.4191 0 0 -6.037 -2637.0964 788.0891)" gradientUnits="userSpaceOnUse">
			<stop  offset="0" style="stop-color:#FFFFFF"/>
			<stop  offset="0.2527" style="stop-color:#FFFFFF"/>
			<stop  offset="0.3461" style="stop-color:#A7A6A6"/>
			<stop  offset="0.3461" style="stop-color:#A7A6A6"/>
			<stop  offset="0.4121" style="stop-color:#7B7979"/>
			<stop  offset="0.4725" style="stop-color:#4F4C4C"/>
			<stop  offset="1" style="stop-color:#4F4C4C"/>
		</radialGradient>
		<path id="path2738" class="st9" d="M547.2,113.2c-0.3,0.4-0.7,0.9-1,1.3l0,0c-0.4,0.4-0.8,0.3-0.8,0.3l0,0c0,0,2.8,1.4,4.5,2.3
			l0,0c0.7,0.4,1.7,0.1,2.4-1.2l0,0c0.2-0.3,1.2-2.6,1.5-3.3l0,0l-6.1-0.8C547.9,112.3,547.5,112.8,547.2,113.2"/>
		
			<linearGradient id="path2764_1_" gradientUnits="userSpaceOnUse" x1="586.5568" y1="110.5151" x2="566.3788" y2="105.4706" gradientTransform="matrix(5.4191 0 0 -6.037 -2637.0964 788.0891)">
			<stop  offset="0" style="stop-color:#F4F4F4"/>
			<stop  offset="0.2582" style="stop-color:#BDBCBC"/>
			<stop  offset="0.6483" style="stop-color:#F4F4F4"/>
			<stop  offset="0.8956" style="stop-color:#FFFFFF"/>
			<stop  offset="1" style="stop-color:#FFFFFF"/>
		</linearGradient>
		<path id="path2764" class="st10" d="M538,120.7c-0.7,0-2.4,0.2-2.9,0.3l0,0c-0.5,0.1-1.2,0.7-1.3,0.8l0,0c-0.2,0.2-0.2,0.4,0,0.4
			l0,0c0.1,0,0.4,0,0.6,0l0,0c0.6-0.1,2.2-0.1,4-0.1l0,0c0.9,0,2,0,2.8,0l0,0c0.8,0,1.5,0,1.5,0l0,0c-0.7-0.7-1.3-1.7-1.5-1.7l0,0
			l0,0l0,0C540.8,120.5,538.2,120.7,538,120.7"/>
		<path id="path2776" class="st11" d="M533.7,122.3L533.7,122.3L533.7,122.3c-0.1,0-0.1-0.1-0.1-0.2s0.1-0.2,0.2-0.3
			c0.1-0.1,0.8-0.7,1.4-0.8c0.5-0.1,2.2-0.3,2.9-0.3c0.2,0,2.7-0.2,3.1-0.3l0,0c0.1,0,0.2,0.1,0.3,0.2s0.2,0.3,0.4,0.4
			c0.3,0.4,0.6,0.7,0.9,1.1l0.1,0.1h-0.1l0,0c-0.3,0-2.2,0-4,0c-0.1,0-0.2,0-0.3,0c-1.9,0-3.5,0.1-4,0.1c-0.1,0-0.3,0-0.4,0
			C533.8,122.3,533.8,122.3,533.7,122.3 M533.9,122.2c0.1,0,0.3,0,0.4,0c0.6-0.1,2.2-0.1,4-0.1c0.1,0,0.2,0,0.3,0c1.7,0,3.6,0,3.9,0
			c-0.5-0.6-0.9-1.2-1.2-1.5c-0.1-0.1-0.2-0.2-0.2-0.2l0,0c-0.4,0-2.8,0.2-3,0.2c-0.7,0-2.4,0.2-2.9,0.3c-0.5,0.1-1.2,0.7-1.3,0.8
			c-0.1,0.1-0.1,0.2-0.1,0.3S533.8,122.2,533.9,122.2C533.8,122.2,533.8,122.2,533.9,122.2"/>
		
			<linearGradient id="path2810_1_" gradientUnits="userSpaceOnUse" x1="703.6628" y1="61.5288" x2="915.8409" y2="-196.9792" gradientTransform="matrix(2.3751 0 0 -2.6462 -1129.88 265.7296)">
			<stop  offset="0" style="stop-color:#FFFFFF"/>
			<stop  offset="6.895450e-002" style="stop-color:#E3E2E2"/>
			<stop  offset="0.1565" style="stop-color:#FFFFFF"/>
			<stop  offset="0.3297" style="stop-color:#D3D3D3"/>
			<stop  offset="0.3297" style="stop-color:#D3D3D3"/>
			<stop  offset="0.502" style="stop-color:#FFFFFF"/>
			<stop  offset="0.9796" style="stop-color:#BBBABA"/>
			<stop  offset="0.9796" style="stop-color:#BBBABA"/>
			<stop  offset="1" style="stop-color:#BBBABA"/>
		</linearGradient>
		<path id="path2810" class="st12" d="M544.7,102.4c-0.7,0.4-0.7,0.8-1.1,1.1l0,0c-0.5,0.3-1.5,0.5-2.5,0.9l0,0
			c-0.6,0.3-0.6,0.3-0.5,0.7l0,0c0.1,0.1,0.5,0.8,0.7,0.8l0,0c0.2,0,0.5-0.1,0.7-0.2l0,0c0.3-0.1,2.4-0.9,4.1-1.3l0,0
			c1.9-0.4,3.8-0.5,4.6,0.3l0,0c1.1,1.1,3,3.7,3.6,4.8l0,0c0.6,1.1,0.5,1.6,0.1,2.7l0,0c-0.4,1-1.7,3.7-2.1,4.3l0,0
			c-0.4,0.6-0.8,0.8-2,0.4l0,0c-1.2-0.5-5.6-2.8-6.6-3.3l0,0c-0.7-0.3-3.4-1.7-5.4-2.7l0,0c-0.7-0.4-1.4-0.7-2.1-0.8l0,0
			c-1.5-0.4-3.2-0.2-3.9-0.1l0,0c-0.4,0.1-0.6,0.7-0.6,0.8l0,0c0,0.2,0.4,0.2,0.8,0.1l0,0c0.2,0,0.5,0,0.7,0l0,0
			c0.6,0,2.3,0.3,3.5,0.7l0,0c1.1,0.5,6.7,3.5,8.1,4.2l0,0c10.9,5.9,15.4,9.6,23.8,23.7l0,0c0.4,0.7,0.6,1.4,0,1.6l0,0
			c-0.8,0.3-4.4,0.9-5.5,1.3l0,0c-0.9,0.3-1,0.4-1.1,0.8l0,0c-0.2,0.5-0.4,1.5-0.3,1.7l0,0c0,0.1-0.1,0.2,0.1,0.2l0,0
			c1,0,4.6,0,7.4,0.3l0,0c0.4,0,0.4,0,0.6-0.3l0,0c0.3-0.4,1.2-1.5,1.9-2l0,0c0.3-0.2,0.1-0.6,0-0.7l0,0c-0.7-2-3-6.4-6.1-10.9l0,0
			c-3-4.4-8.1-10.4-8.8-11.4l0,0c-0.7-0.9-0.9-2.1,0.5-2.5l0,0c0.9-0.3,3.2-0.7,4.1-1l0,0c0.9-0.3,0.9-0.6,1-1.2l0,0
			c0.1-0.7-0.1-4.4-0.6-6.6l0,0c-0.1-0.5-0.4-0.8-0.7-1.1l0,0c-0.3-0.2-1.6-1.3-2.2-2.1l0,0c-0.7-0.9-1.1-1.8-1.3-2.4l0,0
			c0,0,0-0.1-0.2-0.3l0,0c-0.1-0.1-0.1-0.1-0.2-0.2l0,0c-1.3-0.8-6.1-2.2-7.1-2.2l0,0c-0.1,0-0.1,0-0.2,0l0,0
			C548.9,100.8,546.7,101.2,544.7,102.4"/>
		
			<linearGradient id="path2832_1_" gradientUnits="userSpaceOnUse" x1="585.0762" y1="112.2997" x2="680.228" y2="21.9238" gradientTransform="matrix(5.4191 0 0 -6.037 -2637.0964 788.0891)">
			<stop  offset="0" style="stop-color:#DEDEDE"/>
			<stop  offset="0.5069" style="stop-color:#4F4C4C"/>
			<stop  offset="1" style="stop-color:#DEDEDE"/>
		</linearGradient>
		<path id="path2832" class="st13" d="M531.9,111.2c0.4,0,1.1,0,1.7,0l0,0c1,0.1,2.2,0.4,3.1,0.7l0,0c1.1,0.5,6.5,3.7,7.9,4.4l0,0
			c4.1,2.3,7.3,4.5,10.3,6.9l0,0c4.5,3.7,8.4,7.9,13.3,16.5l0,0c0.2,0.4,0.3,0.6,0.3,0.9l0,0c0,0.5-0.4,0.7-0.6,0.7l0,0
			c-0.8,0.3-4.3,1-5.3,1.4l0,0c-0.8,0.3-1,0.5-1.1,0.9l0,0c0,0.2-0.2,1-0.4,1.2l0,0c-0.2,0.2-0.6,0.3-1,0.3l0,0
			c-0.3,0-0.4,0-0.4-0.3l0,0c0-0.3,0.2-1,0.3-1.5l0,0c0.1-0.5,0.3-0.7,0.7-1l0,0c0.4-0.3,1.9-0.5,2.6-0.7l0,0
			c0.8-0.2,0.8-0.6,0.8-1.2l0,0c0,0.7-0.2,0.8-1,0.9l0,0c-0.8,0.2-2.2,0.4-2.6,0.7l0,0c-0.5,0.3-0.7,0.7-0.7,1l0,0
			c-0.3,1.1-0.5,2-0.5,2.2l0,0c0,0.3,0.1,0.3,0.4,0.3l0,0c0.3,0,0.9-0.1,2.1-0.2l0,0c0.3,0,0.3-0.4,0.3-0.7l0,0c0-0.2,0-0.6,0.1-0.8
			l0,0c0.1-0.2,0.3-0.4,0.5-0.5l0,0c0.6-0.2,3.8-1,5.4-1.5l0,0c0.7-0.2,1-0.5,0.9-1.1l0,0c-0.1-0.6-0.6-1.4-1.5-2.9l0,0
			c-0.9-1.5-2.2-3.5-3.7-5.7l0,0c-2.8-3.9-5.5-7-8.9-9.7l0,0c-2.5-2-5.1-3.6-7.1-4.7l0,0c-2-1.1-10.1-5.6-11.3-6l0,0
			c-1.1-0.4-2.1-0.5-2.9-0.6l0,0C532.9,111,532.4,111.1,531.9,111.2L531.9,111.2c-0.4-0.1-0.2-0.5-0.2-0.7l0,0
			C531.8,110.6,531.5,111.2,531.9,111.2"/>
		
			<linearGradient id="path2864_1_" gradientUnits="userSpaceOnUse" x1="587.8745" y1="109.6918" x2="550.9702" y2="54.5198" gradientTransform="matrix(5.4191 0 0 -6.037 -2637.0964 788.0891)">
			<stop  offset="0" style="stop-color:#C8C7C8"/>
			<stop  offset="9.999080e-002" style="stop-color:#FFFFFF"/>
			<stop  offset="0.3492" style="stop-color:#F0F0F0"/>
			<stop  offset="0.5385" style="stop-color:#FFFFFF"/>
			<stop  offset="0.7143" style="stop-color:#393536"/>
			<stop  offset="0.8414" style="stop-color:#FFFFFF"/>
			<stop  offset="0.9103" style="stop-color:#514E4F"/>
			<stop  offset="1" style="stop-color:#868484"/>
		</linearGradient>
		<path id="path2864" class="st14" d="M546.7,125.9c-0.3,0.4-1.9,2.9-3.2,5.3l0,0c-0.9,1.7-2.1,4.1-2.2,4.8l0,0
			c-0.2,0.6-0.3,1-0.2,1.7l0,0c0,0.6,0.1,1.6,0.2,2.2l0,0c0,0.7-0.1,0.9-0.8,1.1l0,0c-0.6,0.1-3.7,0.7-4.5,0.8l0,0
			c-0.7,0.2-1,0.6-1.2,1.1l0,0c-0.2,0.6-0.4,1.7-0.4,1.9l0,0c0,0.3,0,0.3,0.3,0.3l0,0c0.2,0,0.7-0.1,0.9-0.1l0,0
			c0.2,0,0.2-0.2,0.2-0.4l0,0c0.1-0.2,0.1-0.5,0.2-1l0,0c0.1-0.5,0.3-0.8,0.9-1.1l0,0c0.7-0.2,3.8-0.7,4.3-0.8l0,0
			c0.6-0.2,0.8-0.4,0.9-0.9l0,0c0.1-0.6-0.1-1.7-0.1-2.5l0,0c0-0.9,0-1.4,0.5-2.4l0,0c1-2,4.2-6.6,6.4-9.4l0,0c0,0-0.2-0.2-0.5-0.4
			l0,0c-0.3-0.2-0.7-0.6-0.9-0.6l0,0c-0.1,0-0.1,0-0.2,0l0,0C547.1,125.5,546.9,125.6,546.7,125.9"/>
		
			<linearGradient id="path2890_1_" gradientUnits="userSpaceOnUse" x1="587.6671" y1="108.0007" x2="597.3724" y2="102.2842" gradientTransform="matrix(5.4191 0 0 -6.037 -2637.0964 788.0891)">
			<stop  offset="0" style="stop-color:#FFFFFF"/>
			<stop  offset="0.5207" style="stop-color:#CFCECE"/>
			<stop  offset="0.5207" style="stop-color:#CFCECE"/>
			<stop  offset="0.8352" style="stop-color:#4F4C4C"/>
			<stop  offset="1" style="stop-color:#393536"/>
		</linearGradient>
		<path id="path2890" class="st15" d="M546.4,139.6c-0.6,1.3-0.7,2.1-0.7,2.6l0,0c0,0.6,0.1,0.7,0.1,0.7l0,0c0-0.6,0.2-1,0.6-1.6
			l0,0c0.5-0.7,1.2-1.4,2.2-2.3l0,0c1.6-1.7,5.4-5.4,5.6-5.6l0,0c0.1-0.1,0.2-0.2,0-0.4l0,0c-0.4-0.4-0.6-0.6-1.2-1.2l0,0
			c-0.4-0.4-0.7-0.6-0.7-0.7l0,0l0,0l0,0C552.1,131,547.8,135.9,546.4,139.6"/>
		
			<linearGradient id="path2918_1_" gradientUnits="userSpaceOnUse" x1="588.0172" y1="109.5223" x2="598.3008" y2="121.834" gradientTransform="matrix(5.4191 0 0 -6.037 -2637.0964 788.0891)">
			<stop  offset="0" style="stop-color:#FFFFFF"/>
			<stop  offset="0.2088" style="stop-color:#FFFFFF"/>
			<stop  offset="0.5" style="stop-color:#DEDEDE"/>
			<stop  offset="0.5" style="stop-color:#DEDEDE"/>
			<stop  offset="0.9451" style="stop-color:#9C9A9B"/>
			<stop  offset="1" style="stop-color:#959494"/>
		</linearGradient>
		<path id="path2918" class="st16" d="M532,111.2l35.8,30c0.4-0.1,0.6-0.4,0.6-0.6l0,0c0-0.3,0-0.6-0.2-0.9l0,0
			c-5-8.7-8.7-12.7-13.3-16.4l0,0c-0.7-0.7-1.6-1.3-2.4-1.9l0,0c-2.3-1.7-4.9-3.4-7.9-5.1l0,0c-0.8-0.5-3.4-2-5.3-3.1l0,0
			c-1.1-0.7-2.2-1.2-2.5-1.3l0,0c-0.7-0.4-2.1-0.6-3.1-0.7l0,0c-0.4,0-0.7-0.1-1-0.1l0,0C532.4,111.1,532.1,111.2,532,111.2"/>
		
			<linearGradient id="path2942_1_" gradientUnits="userSpaceOnUse" x1="589.4951" y1="113.522" x2="602.9018" y2="99.8064" gradientTransform="matrix(5.4191 0 0 -6.037 -2637.0964 788.0891)">
			<stop  offset="0" style="stop-color:#231F20"/>
			<stop  offset="0.1793" style="stop-color:#F4F4F4"/>
			<stop  offset="0.5793" style="stop-color:#444041"/>
			<stop  offset="1" style="stop-color:#231F20"/>
		</linearGradient>
		<path id="path2942" class="st17" d="M557.2,102.8c0.1,0.1,0.2,0.1,0.3,0.2l0,0c0.3,0.2,0.3,0.5,0.3,0.5l0,0
			c0.1,0.6,0.5,1.4,1.2,2.2l0,0c0.7,0.7,2,1.9,2.2,2.1l0,0c0.2,0.1,0.4,0.3,0.5,0.4l0,0c0.1-0.5,0.2-0.9,0.5-1.4l0,0
			c0,0.1-0.1,0.1-0.1,0.2l0,0c-0.1,0.1-0.2,0.2-0.4,0.2l0,0l0,0l0,0c-0.2,0-0.3-0.1-0.4-0.2l0,0c-0.7-0.6-2.7-2.1-3-3.5l0,0
			c-0.2-0.7,0-0.4-0.6-0.7l0,0c-0.2-0.1-0.4-0.2-0.6-0.2l0,0C557.1,102.7,557.1,102.7,557.2,102.8"/>
		
			<linearGradient id="path2966_1_" gradientUnits="userSpaceOnUse" x1="589.5917" y1="110.193" x2="604.8431" y2="120.2061" gradientTransform="matrix(5.4191 0 0 -6.037 -2637.0964 788.0891)">
			<stop  offset="0" style="stop-color:#231F20"/>
			<stop  offset="0.1793" style="stop-color:#F4F4F4"/>
			<stop  offset="0.5793" style="stop-color:#444041"/>
			<stop  offset="1" style="stop-color:#231F20"/>
		</linearGradient>
		<path id="path2966" class="st18" d="M561.4,117.3c-0.9,0.3-3.3,0.7-4.2,1l0,0c-0.7,0.3-0.7,0.5-0.7,0.7l0,0l0,0
			c0,0.3,0.2,0.7,0.5,1.2l0,0c0.4,0.5,2.1,2.4,3.9,4.8l0,0c0.2,0.3,0.3,0.4,0.5,0.6l0,0c-0.1-0.1-2.7-3.5-3.6-4.4l0,0
			c-0.2-0.3-0.5-0.7-0.5-1.1l0,0c0-0.5,0.4-1.1,1.1-1.4l0,0c1-0.4,2.8-0.9,3.3-1.2l0,0c0.4-0.2,0.6-0.4,0.6-0.7l0,0
			C562,117,561.7,117.2,561.4,117.3"/>
		
			<linearGradient id="path2992_1_" gradientUnits="userSpaceOnUse" x1="590.3704" y1="113.0308" x2="610.4091" y2="113.0308" gradientTransform="matrix(5.4191 0 0 -6.037 -2637.0964 788.0891)">
			<stop  offset="0" style="stop-color:#656263"/>
			<stop  offset="0.2857" style="stop-color:#D3D3D3"/>
			<stop  offset="0.533" style="stop-color:#656263"/>
			<stop  offset="0.7582" style="stop-color:#393536"/>
			<stop  offset="1" style="stop-color:#231F20"/>
		</linearGradient>
		<path id="path2992" class="st19" d="M565.6,104.3c-1.8,0-3,1.6-3.4,3l0,0c0.4-1.3,1.5-2.8,3.4-2.8l0,0c2.3,0,3.3,0.8,3.7,2.2l0,0
			c-0.4-1.8-2-2.4-3.5-2.4l0,0C565.7,104.3,565.6,104.3,565.6,104.3"/>
		
			<linearGradient id="path3016_1_" gradientUnits="userSpaceOnUse" x1="585.0988" y1="106.9847" x2="631.3021" y2="106.9847" gradientTransform="matrix(5.4191 0 0 -6.037 -2637.0964 788.0891)">
			<stop  offset="0" style="stop-color:#231F20"/>
			<stop  offset="0.1793" style="stop-color:#9E9D9D"/>
			<stop  offset="0.5793" style="stop-color:#444041"/>
			<stop  offset="1" style="stop-color:#231F20"/>
		</linearGradient>
		<path id="path3016" class="st20" d="M548.6,139.2c-1.8,1.9-2.6,2.4-2.6,3.6l0,0c0,0.7,0.1,2.3,0.1,2.6l0,0c0,0.2,0,0.4-0.3,0.5
			l0,0c-0.2,0.1-0.4,0.1-0.5,0.1l0,0c-0.5,0-5.2-0.5-6.9-0.5l0,0c-1.7,0-3.1,0.2-3.9,0.4l0,0c-0.2,0-0.5,0-0.7-0.2l0,0
			c-0.1-0.1-0.1-0.2-0.1-0.3l0,0c0,0.3-0.1,0.7-0.1,0.8l0,0c0.3-0.1,1-0.2,2-0.2l0,0c1.2-0.1,2.5-0.1,3.4-0.1l0,0
			c0.8,0,7.5,0.4,7.5,0.4l0,0c0-0.5-0.1-1.7-0.1-2.4l0,0c0-0.2,0-0.2,0-0.7l0,0c0-0.6,0.1-1.3,0.7-1.9l0,0c0.3-0.4,1.5-1.7,2.8-3.1
			l0,0C549.3,138.5,548.9,138.9,548.6,139.2"/>
		
			<linearGradient id="path3040_1_" gradientUnits="userSpaceOnUse" x1="588.8882" y1="108.0311" x2="609.553" y2="108.0311" gradientTransform="matrix(5.4191 0 0 -6.037 -2637.0964 788.0891)">
			<stop  offset="0" style="stop-color:#231F20"/>
			<stop  offset="0.1793" style="stop-color:#9E9D9D"/>
			<stop  offset="0.5793" style="stop-color:#444041"/>
			<stop  offset="1" style="stop-color:#231F20"/>
		</linearGradient>
		<path id="path3040" class="st21" d="M554.1,133.7c0.2,0,0.4,0.1,0.5,0.3l0,0c0.4,0.3,4.8,3.6,5.6,4.1l0,0c0.4,0.3,0.7,0.5,1.1,0.6
			l0,0c-0.3-0.2-0.7-0.6-1.3-1l0,0c-0.8-0.7-2-1.5-3-2.3l0,0c-0.9-0.7-1.9-1.5-2.6-2.1l0,0C554.4,133.5,554.2,133.7,554.1,133.7"/>
		
			<linearGradient id="path3064_1_" gradientUnits="userSpaceOnUse" x1="589.78" y1="107.8839" x2="627.737" y2="107.8839" gradientTransform="matrix(5.4191 0 0 -6.037 -2637.0964 788.0891)">
			<stop  offset="0" style="stop-color:#231F20"/>
			<stop  offset="0.1793" style="stop-color:#9E9D9D"/>
			<stop  offset="0.5793" style="stop-color:#444041"/>
			<stop  offset="1" style="stop-color:#231F20"/>
		</linearGradient>
		<path id="path3064" class="st22" d="M564.7,129.1c0,0.1-0.1,0.3-0.1,0.5l0,0c0,0.3,0.1,0.7,0.5,1.1l0,0c0.2,0.3,0.4,0.6,0.7,0.8
			l0,0c3.1,4.5,5.2,8.9,6,10.9l0,0c0.2,0.5,0.2,0.7,0,0.9l0,0c0,0-1.6,1.7-1.8,2l0,0c-0.1,0.1-0.2,0.2-0.3,0.3l0,0
			c-0.1,0.1-0.4,0.2-0.7,0.2l0,0c-2.3-0.2-5-0.3-6.3-0.3l0,0c-1.7,0-2.6,0.2-3.2,0.2l0,0c-0.3,0-0.5-0.1-0.6-0.1l0,0l0,0l0,0
			c0,0.3,0,0.4,0,0.5l0,0c1-0.2,2.3-0.3,3.9-0.3l0,0c0.5,0,0.9,0,1.5,0l0,0c2.5,0.1,5.4,0.3,5.4,0.3l0,0c0,0,1.4-1.8,2.2-2.5l0,0
			c0.2-0.1,0.2-0.1,0.2-0.2l0,0c0-0.1,0-0.2-0.1-0.5l0,0c-0.9-2.5-4.3-8.9-6.9-12.4l0,0c-0.3-0.4-0.5-0.7-0.5-1.1l0,0
			c0-0.4,0.2-0.7,0.5-0.8l0,0c0.2-0.2,0.7-0.6,1.2-1.1l0,0C565.5,128.3,564.8,128.9,564.7,129.1"/>
		
			<linearGradient id="path3086_1_" gradientUnits="userSpaceOnUse" x1="584.9701" y1="109.9953" x2="624.5384" y2="109.9953" gradientTransform="matrix(5.4191 0 0 -6.037 -2637.0964 788.0891)">
			<stop  offset="0" style="stop-color:#7B7979"/>
			<stop  offset="0.1793" style="stop-color:#D3D3D3"/>
			<stop  offset="1" style="stop-color:#231F20"/>
		</linearGradient>
		<path id="path3086" class="st23" d="M534.7,122.8c-1,0.1-1.5,0.2-1.6,0.2l0,0c-0.1,0-0.2,0-0.2,0l0,0c0,0,0.1,0.1,0.1,0.2l0,0h0.1
			l0,0c0.6-0.2,2-0.3,3.7-0.3l0,0c1.6,0,3.4,0,4.3,0.1l0,0c0.8,0,2,0.2,2.9,0.7l0,0c0.8,0.5,2.7,1.8,2.8,1.7l0,0
			c-0.7-0.6-1.6-1-2.2-1.5l0,0c-0.9-0.6-1.9-1-2.2-1l0,0c-2.9,0-2.9,0-4.6,0l0,0C536.5,122.7,535.1,122.8,534.7,122.8"/>
		
			<linearGradient id="path3108_1_" gradientUnits="userSpaceOnUse" x1="585.0241" y1="111.3942" x2="598.7585" y2="111.3942" gradientTransform="matrix(5.4191 0 0 -6.037 -2637.0964 788.0891)">
			<stop  offset="0" style="stop-color:#444041"/>
			<stop  offset="0.1793" style="stop-color:#D3D3D3"/>
			<stop  offset="1" style="stop-color:#231F20"/>
		</linearGradient>
		<path id="path3108" class="st24" d="M533.4,114.6c0,0,0.1,0,0.2,0l0,0c0.3,0,0.7,0,1.1,0.2l0,0c0.7,0.4,2.6,1.8,2.9,2.1l0,0
			c0.4,0.4,0.7,0.4,0.4,0.1l0,0c-1.1-1-2.7-2.2-3.6-2.3l0,0C534.1,114.5,533.7,114.5,533.4,114.6L533.4,114.6
			c-0.2-0.1-0.1-0.4-0.2-0.5l0,0C533.2,114.1,533.2,114.6,533.4,114.6"/>
		
			<linearGradient id="path3130_1_" gradientUnits="userSpaceOnUse" x1="584.2487" y1="110.2072" x2="593.5195" y2="110.2072" gradientTransform="matrix(5.4191 0 0 -6.037 -2637.0964 788.0891)">
			<stop  offset="0" style="stop-color:#7B7979"/>
			<stop  offset="0.1793" style="stop-color:#BDBCBC"/>
			<stop  offset="1" style="stop-color:#444041"/>
		</linearGradient>
		<path id="path3130" class="st25" d="M531.7,122.2c-0.6,0-1.8,0.7-2.1,0.7l0,0c-0.3,0.2-0.5,0.2-0.7,0l0,0c0.1,0.2,0.3,0.4,0.4,0.3
			l0,0c0.1-0.1,1.7-0.8,2.4-0.8l0,0c0.2,0,0.3,0,0.5,0.1l0,0C532.1,122.3,532,122.2,531.7,122.2L531.7,122.2L531.7,122.2"/>
		
			<linearGradient id="path3154_1_" gradientUnits="userSpaceOnUse" x1="587.3823" y1="113.5319" x2="588.3903" y2="111.3157" gradientTransform="matrix(5.4191 0 0 -6.037 -2637.0964 788.0891)">
			<stop  offset="0" style="stop-color:#FFFFFF"/>
			<stop  offset="0.1154" style="stop-color:#EEEEEE"/>
			<stop  offset="0.9066" style="stop-color:#5A5758"/>
			<stop  offset="1" style="stop-color:#5A5758"/>
		</linearGradient>
		<path id="path3154" class="st26" d="M546.9,102.5c-0.4,0.1-1.5,0.4-1.6,0.4l0,0c-0.1,0-0.2,0.1-0.3,0.2l0,0
			c-0.1,0.1-0.1,0.4-0.1,0.6l0,0c0,0.1,0.2,0.2,0.3,0.1l0,0c0.3-0.1,1.7-0.7,1.9-0.7l0,0c0.1,0,0.2-0.1,0.2-0.2l0,0
			c0-0.1,0-0.2,0-0.3l0,0c0-0.1-0.1-0.2-0.2-0.2l0,0C547.1,102.5,547,102.5,546.9,102.5"/>
		<path id="path3166" class="st0" d="M546.9,102.6c0.2,0,0.3,0,0.3,0.1s0,0.2,0,0.2s0,0.1-0.1,0.1c-0.2,0.1-1.2,0.5-1.4,0.6
			c-0.2,0.1-0.4,0-0.4-0.1s0-0.3,0.1-0.3c0-0.1,0.1-0.1,0.2-0.2C545.7,103,546.7,102.7,546.9,102.6"/>
		
			<linearGradient id="path3190_1_" gradientUnits="userSpaceOnUse" x1="586.569" y1="112.2072" x2="624.0103" y2="112.2072" gradientTransform="matrix(5.4191 0 0 -6.037 -2637.0964 788.0891)">
			<stop  offset="0" style="stop-color:#FFFFFF"/>
			<stop  offset="0.9796" style="stop-color:#231F20"/>
			<stop  offset="0.9796" style="stop-color:#231F20"/>
			<stop  offset="1" style="stop-color:#231F20"/>
		</linearGradient>
		<path id="path3190" class="st27" d="M548.4,104.1c-2.9,0.1-5.4,1.3-6.9,1.9l0,0c1-0.4,3.5-1.4,6.3-1.5l0,0c1.5-0.1,2.2,0,2.7,0.7
			l0,0c0.8,0.9,2.7,3.4,3.4,4.7l0,0c0.3,0.5,0.4,0.9,0.4,1.3l0,0c-0.1,0.6-0.3,1-0.5,1.4l0,0c-0.3,0.7-1.4,2.8-1.6,3.2l0,0
			c-0.7,1.3-1.5,1.3-2.3,1.1l0,0c0,0,0.4,0.2,0.7,0.4l0,0c0.9,0.4,1.5-0.2,2.1-1.1l0,0c0.2-0.3,1.3-2.7,1.6-3.5l0,0
			c0.2-0.5,0.4-0.8,0.4-1.4l0,0c0-0.4-0.1-0.9-0.4-1.4l0,0c-0.7-1.3-2.6-3.8-3.4-4.8l0,0c-0.7-0.7-1.2-0.9-2.2-0.9l0,0
			C548.6,104.1,548.5,104.1,548.4,104.1"/>
		
			<linearGradient id="path3218_1_" gradientUnits="userSpaceOnUse" x1="586.4125" y1="106.8397" x2="600.29" y2="155.9219" gradientTransform="matrix(5.4191 0 0 -6.037 -2637.0964 788.0891)">
			<stop  offset="0" style="stop-color:#E9E9E9"/>
			<stop  offset="6.593320e-002" style="stop-color:#5A5758"/>
			<stop  offset="0.3517" style="stop-color:#918F90"/>
			<stop  offset="0.6044" style="stop-color:#B7B5B6"/>
			<stop  offset="0.9586" style="stop-color:#706D6E"/>
			<stop  offset="1" style="stop-color:#B2B1B1"/>
		</linearGradient>
		<path id="path3218" class="st28" d="M545.1,131.5c-1,1.7-2.5,4.1-2.8,4.7l0,0c-0.2,0.5-0.3,0.9-0.3,1.5l0,0c0,0,0.1,2.6,0.1,2.7
			l0,0c0,0.4-0.1,0.6-0.2,0.8l0,0c-0.2,0.2-0.5,0.3-0.8,0.4l0,0c-0.7,0.1-3.6,0.6-4.3,0.7l0,0c-0.7,0.2-1.1,0.6-1.3,1l0,0
			c-0.1,0.4-0.3,1-0.3,1.3l0,0v0.2l0,0c0,0.3,0.1,0.3,0.1,0.3l0,0c0,0,3.4-0.3,5.3-0.1l0,0c2,0.1,4.8,0.4,4.8,0.4l0,0
			c0,0-2.9-0.6-4.9-0.7l0,0c-1-0.1-2.2,0-3,0l0,0c-0.9,0-1.6,0.1-1.6,0l0,0c0-0.1-0.1-0.2,0-0.5l0,0c0-0.2,0.1-0.4,0.1-0.6l0,0
			c0.1-0.5,0.4-0.9,1.1-1.1l0,0c0.7-0.2,3.6-0.7,4.1-0.7l0,0c0.6-0.1,0.8-0.4,0.9-0.7l0,0c0-0.1,0-0.5,0-0.7l0,0
			c0-0.6-0.1-2.1-0.1-2.2l0,0c0-0.9,0.1-1.4,0.7-2.4l0,0c0.9-1.6,4.5-6.9,6.2-8.8l0,0c0.1-0.1,0.2-0.2,0.4-0.2l0,0h-0.1l0,0
			c0,0-0.2-0.1-0.4-0.3l0,0C548.3,126.8,546.4,129.4,545.1,131.5"/>
	</g>
	<g>
		<path id="path3230" class="st29" d="M-271.5,487.9v32.6h8.5v-10h7.6c16.3,0,24.6-5.5,24.6-11.6c0-6.6-8.9-10.9-23.9-10.9H-271.5
			 M-263,506.9v-15.3h6.6c6.9,0,16,1.2,16,7.3c0,4.1-3,8.1-17.1,8.1C-257.5,506.9-263,506.9-263,506.9z"/>
		<path id="path3234" class="st29" d="M-182.3,520.5v-4.1h-21c-4.5,0-5.8-2.2-5.8-5.8v-4.8h24.6v-4.1h-24.6v-9.7h25.6v-4.1h-34.2
			v22.8c0,6.1,2.4,9.7,10.2,9.7L-182.3,520.5L-182.3,520.5z"/>
		<path id="path3238" class="st29" d="M-128,487.9h-8.5v27.5c-2.3,0.8-5.4,1.6-10,1.6c-6.6,0-13-1.8-13-7.8v-21.3h-8.5v22
			c0,9,8.5,11.6,17.9,11.6c8.9,0,16.2-2,22.2-4.6V487.9z"/>
		<path id="path3242" class="st29" d="M-104.3,504.3c0-9.1,7.3-13.3,16.1-13.3c7.3,0,12.9,2.2,18.2,4.1v-5.4
			c-5.6-1.8-10.9-2.7-18.2-2.7c-14.2,0-25.8,6.9-25.8,17.3c0,11,11.6,17.2,25.8,17.2c7.1,0,14.5-1.6,19.1-2.8v-12.9h-8.3v9.6
			c-3.1,1.1-5.3,2-10.1,2C-97.3,517.4-104.3,512.3-104.3,504.3"/>
		<path id="path3246" class="st29" d="M-18.4,520.5v-4.1h-21c-4.5,0-5.8-2.2-5.8-5.8v-4.8h24.6v-4.1h-24.6v-9.7h25.6v-4.1h-34.2
			v22.8c0,6.1,2.4,9.7,10.2,9.7L-18.4,520.5L-18.4,520.5z"/>
		<path id="path3250" class="st29" d="M18.3,487c-14.2,0-25.8,7-25.8,17.5c0,11,11.6,17,25.8,17s25.8-6,25.8-17
			C44.2,494,32.6,487,18.3,487 M18.3,517.9c-9.6,0-16.2-5.2-16.2-13.4c0-9,7.3-13.5,16.2-13.5s16.1,4.5,16.1,13.5
			C34.5,512.6,28,517.9,18.3,517.9"/>
		<path id="path3254" class="st29" d="M51.1,492.6H68v27.9h8.5v-27.9h16.9v-4.7H51.1V492.6z"/>
	</g>
</g>
</svg>
